<?xml version="1.0" encoding="utf-8" standalone="no"?>
<!DOCTYPE svg PUBLIC "-//W3C//DTD SVG 1.1//EN"
  "http://www.w3.org/Graphics/SVG/1.1/DTD/svg11.dtd">
<!-- Created with matplotlib (https://matplotlib.org/) -->
<svg height="432pt" version="1.1" viewBox="0 0 1008 432" width="1008pt" xmlns="http://www.w3.org/2000/svg" xmlns:xlink="http://www.w3.org/1999/xlink">
 <defs>
  <style type="text/css">
*{stroke-linecap:butt;stroke-linejoin:round;}
  </style>
 </defs>
 <g id="figure_1">
  <g id="patch_1">
   <path d="M 0 432 
L 1008 432 
L 1008 0 
L 0 0 
z
" style="fill:#ffffff;"/>
  </g>
  <g id="axes_1">
   <g id="patch_2">
    <path d="M 100.8 388.8 
L 705.6 388.8 
L 705.6 64.8 
L 100.8 64.8 
z
" style="fill:#ffffff;"/>
   </g>
   <g id="matplotlib.axis_1">
    <g id="xtick_1">
     <g id="line2d_1">
      <path clip-path="url(#p6e3ff86c13)" d="M 128.290909 388.8 
L 128.290909 64.8 
" style="fill:none;stroke:#b0b0b0;stroke-linecap:square;stroke-width:0.8;"/>
     </g>
     <g id="line2d_2">
      <defs>
       <path d="M 0 0 
L 0 3.5 
" id="mf89a4da475" style="stroke:#000000;stroke-width:0.8;"/>
      </defs>
      <g>
       <use style="stroke:#000000;stroke-width:0.8;" x="128.290909" xlink:href="#mf89a4da475" y="388.8"/>
      </g>
     </g>
     <g id="text_1">
      <!-- 0.00 -->
      <defs>
       <path d="M 31.78125 66.40625 
Q 24.171875 66.40625 20.328125 58.90625 
Q 16.5 51.421875 16.5 36.375 
Q 16.5 21.390625 20.328125 13.890625 
Q 24.171875 6.390625 31.78125 6.390625 
Q 39.453125 6.390625 43.28125 13.890625 
Q 47.125 21.390625 47.125 36.375 
Q 47.125 51.421875 43.28125 58.90625 
Q 39.453125 66.40625 31.78125 66.40625 
z
M 31.78125 74.21875 
Q 44.046875 74.21875 50.515625 64.515625 
Q 56.984375 54.828125 56.984375 36.375 
Q 56.984375 17.96875 50.515625 8.265625 
Q 44.046875 -1.421875 31.78125 -1.421875 
Q 19.53125 -1.421875 13.0625 8.265625 
Q 6.59375 17.96875 6.59375 36.375 
Q 6.59375 54.828125 13.0625 64.515625 
Q 19.53125 74.21875 31.78125 74.21875 
z
" id="DejaVuSans-48"/>
       <path d="M 10.6875 12.40625 
L 21 12.40625 
L 21 0 
L 10.6875 0 
z
" id="DejaVuSans-46"/>
      </defs>
      <g transform="translate(117.158097 403.398438)scale(0.1 -0.1)">
       <use xlink:href="#DejaVuSans-48"/>
       <use x="63.623047" xlink:href="#DejaVuSans-46"/>
       <use x="95.410156" xlink:href="#DejaVuSans-48"/>
       <use x="159.033203" xlink:href="#DejaVuSans-48"/>
      </g>
     </g>
    </g>
    <g id="xtick_2">
     <g id="line2d_3">
      <path clip-path="url(#p6e3ff86c13)" d="M 204.867264 388.8 
L 204.867264 64.8 
" style="fill:none;stroke:#b0b0b0;stroke-linecap:square;stroke-width:0.8;"/>
     </g>
     <g id="line2d_4">
      <g>
       <use style="stroke:#000000;stroke-width:0.8;" x="204.867264" xlink:href="#mf89a4da475" y="388.8"/>
      </g>
     </g>
     <g id="text_2">
      <!-- 0.01 -->
      <defs>
       <path d="M 12.40625 8.296875 
L 28.515625 8.296875 
L 28.515625 63.921875 
L 10.984375 60.40625 
L 10.984375 69.390625 
L 28.421875 72.90625 
L 38.28125 72.90625 
L 38.28125 8.296875 
L 54.390625 8.296875 
L 54.390625 0 
L 12.40625 0 
z
" id="DejaVuSans-49"/>
      </defs>
      <g transform="translate(193.734452 403.398438)scale(0.1 -0.1)">
       <use xlink:href="#DejaVuSans-48"/>
       <use x="63.623047" xlink:href="#DejaVuSans-46"/>
       <use x="95.410156" xlink:href="#DejaVuSans-48"/>
       <use x="159.033203" xlink:href="#DejaVuSans-49"/>
      </g>
     </g>
    </g>
    <g id="xtick_3">
     <g id="line2d_5">
      <path clip-path="url(#p6e3ff86c13)" d="M 281.44362 388.8 
L 281.44362 64.8 
" style="fill:none;stroke:#b0b0b0;stroke-linecap:square;stroke-width:0.8;"/>
     </g>
     <g id="line2d_6">
      <g>
       <use style="stroke:#000000;stroke-width:0.8;" x="281.44362" xlink:href="#mf89a4da475" y="388.8"/>
      </g>
     </g>
     <g id="text_3">
      <!-- 0.02 -->
      <defs>
       <path d="M 19.1875 8.296875 
L 53.609375 8.296875 
L 53.609375 0 
L 7.328125 0 
L 7.328125 8.296875 
Q 12.9375 14.109375 22.625 23.890625 
Q 32.328125 33.6875 34.8125 36.53125 
Q 39.546875 41.84375 41.421875 45.53125 
Q 43.3125 49.21875 43.3125 52.78125 
Q 43.3125 58.59375 39.234375 62.25 
Q 35.15625 65.921875 28.609375 65.921875 
Q 23.96875 65.921875 18.8125 64.3125 
Q 13.671875 62.703125 7.8125 59.421875 
L 7.8125 69.390625 
Q 13.765625 71.78125 18.9375 73 
Q 24.125 74.21875 28.421875 74.21875 
Q 39.75 74.21875 46.484375 68.546875 
Q 53.21875 62.890625 53.21875 53.421875 
Q 53.21875 48.921875 51.53125 44.890625 
Q 49.859375 40.875 45.40625 35.40625 
Q 44.1875 33.984375 37.640625 27.21875 
Q 31.109375 20.453125 19.1875 8.296875 
z
" id="DejaVuSans-50"/>
      </defs>
      <g transform="translate(270.310807 403.398438)scale(0.1 -0.1)">
       <use xlink:href="#DejaVuSans-48"/>
       <use x="63.623047" xlink:href="#DejaVuSans-46"/>
       <use x="95.410156" xlink:href="#DejaVuSans-48"/>
       <use x="159.033203" xlink:href="#DejaVuSans-50"/>
      </g>
     </g>
    </g>
    <g id="xtick_4">
     <g id="line2d_7">
      <path clip-path="url(#p6e3ff86c13)" d="M 358.019975 388.8 
L 358.019975 64.8 
" style="fill:none;stroke:#b0b0b0;stroke-linecap:square;stroke-width:0.8;"/>
     </g>
     <g id="line2d_8">
      <g>
       <use style="stroke:#000000;stroke-width:0.8;" x="358.019975" xlink:href="#mf89a4da475" y="388.8"/>
      </g>
     </g>
     <g id="text_4">
      <!-- 0.03 -->
      <defs>
       <path d="M 40.578125 39.3125 
Q 47.65625 37.796875 51.625 33 
Q 55.609375 28.21875 55.609375 21.1875 
Q 55.609375 10.40625 48.1875 4.484375 
Q 40.765625 -1.421875 27.09375 -1.421875 
Q 22.515625 -1.421875 17.65625 -0.515625 
Q 12.796875 0.390625 7.625 2.203125 
L 7.625 11.71875 
Q 11.71875 9.328125 16.59375 8.109375 
Q 21.484375 6.890625 26.8125 6.890625 
Q 36.078125 6.890625 40.9375 10.546875 
Q 45.796875 14.203125 45.796875 21.1875 
Q 45.796875 27.640625 41.28125 31.265625 
Q 36.765625 34.90625 28.71875 34.90625 
L 20.21875 34.90625 
L 20.21875 43.015625 
L 29.109375 43.015625 
Q 36.375 43.015625 40.234375 45.921875 
Q 44.09375 48.828125 44.09375 54.296875 
Q 44.09375 59.90625 40.109375 62.90625 
Q 36.140625 65.921875 28.71875 65.921875 
Q 24.65625 65.921875 20.015625 65.03125 
Q 15.375 64.15625 9.8125 62.3125 
L 9.8125 71.09375 
Q 15.4375 72.65625 20.34375 73.4375 
Q 25.25 74.21875 29.59375 74.21875 
Q 40.828125 74.21875 47.359375 69.109375 
Q 53.90625 64.015625 53.90625 55.328125 
Q 53.90625 49.265625 50.4375 45.09375 
Q 46.96875 40.921875 40.578125 39.3125 
z
" id="DejaVuSans-51"/>
      </defs>
      <g transform="translate(346.887163 403.398438)scale(0.1 -0.1)">
       <use xlink:href="#DejaVuSans-48"/>
       <use x="63.623047" xlink:href="#DejaVuSans-46"/>
       <use x="95.410156" xlink:href="#DejaVuSans-48"/>
       <use x="159.033203" xlink:href="#DejaVuSans-51"/>
      </g>
     </g>
    </g>
    <g id="xtick_5">
     <g id="line2d_9">
      <path clip-path="url(#p6e3ff86c13)" d="M 434.596331 388.8 
L 434.596331 64.8 
" style="fill:none;stroke:#b0b0b0;stroke-linecap:square;stroke-width:0.8;"/>
     </g>
     <g id="line2d_10">
      <g>
       <use style="stroke:#000000;stroke-width:0.8;" x="434.596331" xlink:href="#mf89a4da475" y="388.8"/>
      </g>
     </g>
     <g id="text_5">
      <!-- 0.04 -->
      <defs>
       <path d="M 37.796875 64.3125 
L 12.890625 25.390625 
L 37.796875 25.390625 
z
M 35.203125 72.90625 
L 47.609375 72.90625 
L 47.609375 25.390625 
L 58.015625 25.390625 
L 58.015625 17.1875 
L 47.609375 17.1875 
L 47.609375 0 
L 37.796875 0 
L 37.796875 17.1875 
L 4.890625 17.1875 
L 4.890625 26.703125 
z
" id="DejaVuSans-52"/>
      </defs>
      <g transform="translate(423.463518 403.398438)scale(0.1 -0.1)">
       <use xlink:href="#DejaVuSans-48"/>
       <use x="63.623047" xlink:href="#DejaVuSans-46"/>
       <use x="95.410156" xlink:href="#DejaVuSans-48"/>
       <use x="159.033203" xlink:href="#DejaVuSans-52"/>
      </g>
     </g>
    </g>
    <g id="xtick_6">
     <g id="line2d_11">
      <path clip-path="url(#p6e3ff86c13)" d="M 511.172686 388.8 
L 511.172686 64.8 
" style="fill:none;stroke:#b0b0b0;stroke-linecap:square;stroke-width:0.8;"/>
     </g>
     <g id="line2d_12">
      <g>
       <use style="stroke:#000000;stroke-width:0.8;" x="511.172686" xlink:href="#mf89a4da475" y="388.8"/>
      </g>
     </g>
     <g id="text_6">
      <!-- 0.05 -->
      <defs>
       <path d="M 10.796875 72.90625 
L 49.515625 72.90625 
L 49.515625 64.59375 
L 19.828125 64.59375 
L 19.828125 46.734375 
Q 21.96875 47.46875 24.109375 47.828125 
Q 26.265625 48.1875 28.421875 48.1875 
Q 40.625 48.1875 47.75 41.5 
Q 54.890625 34.8125 54.890625 23.390625 
Q 54.890625 11.625 47.5625 5.09375 
Q 40.234375 -1.421875 26.90625 -1.421875 
Q 22.3125 -1.421875 17.546875 -0.640625 
Q 12.796875 0.140625 7.71875 1.703125 
L 7.71875 11.625 
Q 12.109375 9.234375 16.796875 8.0625 
Q 21.484375 6.890625 26.703125 6.890625 
Q 35.15625 6.890625 40.078125 11.328125 
Q 45.015625 15.765625 45.015625 23.390625 
Q 45.015625 31 40.078125 35.4375 
Q 35.15625 39.890625 26.703125 39.890625 
Q 22.75 39.890625 18.8125 39.015625 
Q 14.890625 38.140625 10.796875 36.28125 
z
" id="DejaVuSans-53"/>
      </defs>
      <g transform="translate(500.039873 403.398438)scale(0.1 -0.1)">
       <use xlink:href="#DejaVuSans-48"/>
       <use x="63.623047" xlink:href="#DejaVuSans-46"/>
       <use x="95.410156" xlink:href="#DejaVuSans-48"/>
       <use x="159.033203" xlink:href="#DejaVuSans-53"/>
      </g>
     </g>
    </g>
    <g id="xtick_7">
     <g id="line2d_13">
      <path clip-path="url(#p6e3ff86c13)" d="M 587.749041 388.8 
L 587.749041 64.8 
" style="fill:none;stroke:#b0b0b0;stroke-linecap:square;stroke-width:0.8;"/>
     </g>
     <g id="line2d_14">
      <g>
       <use style="stroke:#000000;stroke-width:0.8;" x="587.749041" xlink:href="#mf89a4da475" y="388.8"/>
      </g>
     </g>
     <g id="text_7">
      <!-- 0.06 -->
      <defs>
       <path d="M 33.015625 40.375 
Q 26.375 40.375 22.484375 35.828125 
Q 18.609375 31.296875 18.609375 23.390625 
Q 18.609375 15.53125 22.484375 10.953125 
Q 26.375 6.390625 33.015625 6.390625 
Q 39.65625 6.390625 43.53125 10.953125 
Q 47.40625 15.53125 47.40625 23.390625 
Q 47.40625 31.296875 43.53125 35.828125 
Q 39.65625 40.375 33.015625 40.375 
z
M 52.59375 71.296875 
L 52.59375 62.3125 
Q 48.875 64.0625 45.09375 64.984375 
Q 41.3125 65.921875 37.59375 65.921875 
Q 27.828125 65.921875 22.671875 59.328125 
Q 17.53125 52.734375 16.796875 39.40625 
Q 19.671875 43.65625 24.015625 45.921875 
Q 28.375 48.1875 33.59375 48.1875 
Q 44.578125 48.1875 50.953125 41.515625 
Q 57.328125 34.859375 57.328125 23.390625 
Q 57.328125 12.15625 50.6875 5.359375 
Q 44.046875 -1.421875 33.015625 -1.421875 
Q 20.359375 -1.421875 13.671875 8.265625 
Q 6.984375 17.96875 6.984375 36.375 
Q 6.984375 53.65625 15.1875 63.9375 
Q 23.390625 74.21875 37.203125 74.21875 
Q 40.921875 74.21875 44.703125 73.484375 
Q 48.484375 72.75 52.59375 71.296875 
z
" id="DejaVuSans-54"/>
      </defs>
      <g transform="translate(576.616229 403.398438)scale(0.1 -0.1)">
       <use xlink:href="#DejaVuSans-48"/>
       <use x="63.623047" xlink:href="#DejaVuSans-46"/>
       <use x="95.410156" xlink:href="#DejaVuSans-48"/>
       <use x="159.033203" xlink:href="#DejaVuSans-54"/>
      </g>
     </g>
    </g>
    <g id="xtick_8">
     <g id="line2d_15">
      <path clip-path="url(#p6e3ff86c13)" d="M 664.325397 388.8 
L 664.325397 64.8 
" style="fill:none;stroke:#b0b0b0;stroke-linecap:square;stroke-width:0.8;"/>
     </g>
     <g id="line2d_16">
      <g>
       <use style="stroke:#000000;stroke-width:0.8;" x="664.325397" xlink:href="#mf89a4da475" y="388.8"/>
      </g>
     </g>
     <g id="text_8">
      <!-- 0.07 -->
      <defs>
       <path d="M 8.203125 72.90625 
L 55.078125 72.90625 
L 55.078125 68.703125 
L 28.609375 0 
L 18.3125 0 
L 43.21875 64.59375 
L 8.203125 64.59375 
z
" id="DejaVuSans-55"/>
      </defs>
      <g transform="translate(653.192584 403.398438)scale(0.1 -0.1)">
       <use xlink:href="#DejaVuSans-48"/>
       <use x="63.623047" xlink:href="#DejaVuSans-46"/>
       <use x="95.410156" xlink:href="#DejaVuSans-48"/>
       <use x="159.033203" xlink:href="#DejaVuSans-55"/>
      </g>
     </g>
    </g>
    <g id="text_9">
     <!-- time (in seconds) -->
     <defs>
      <path d="M 18.3125 70.21875 
L 18.3125 54.6875 
L 36.8125 54.6875 
L 36.8125 47.703125 
L 18.3125 47.703125 
L 18.3125 18.015625 
Q 18.3125 11.328125 20.140625 9.421875 
Q 21.96875 7.515625 27.59375 7.515625 
L 36.8125 7.515625 
L 36.8125 0 
L 27.59375 0 
Q 17.1875 0 13.234375 3.875 
Q 9.28125 7.765625 9.28125 18.015625 
L 9.28125 47.703125 
L 2.6875 47.703125 
L 2.6875 54.6875 
L 9.28125 54.6875 
L 9.28125 70.21875 
z
" id="DejaVuSans-116"/>
      <path d="M 9.421875 54.6875 
L 18.40625 54.6875 
L 18.40625 0 
L 9.421875 0 
z
M 9.421875 75.984375 
L 18.40625 75.984375 
L 18.40625 64.59375 
L 9.421875 64.59375 
z
" id="DejaVuSans-105"/>
      <path d="M 52 44.1875 
Q 55.375 50.25 60.0625 53.125 
Q 64.75 56 71.09375 56 
Q 79.640625 56 84.28125 50.015625 
Q 88.921875 44.046875 88.921875 33.015625 
L 88.921875 0 
L 79.890625 0 
L 79.890625 32.71875 
Q 79.890625 40.578125 77.09375 44.375 
Q 74.3125 48.1875 68.609375 48.1875 
Q 61.625 48.1875 57.5625 43.546875 
Q 53.515625 38.921875 53.515625 30.90625 
L 53.515625 0 
L 44.484375 0 
L 44.484375 32.71875 
Q 44.484375 40.625 41.703125 44.40625 
Q 38.921875 48.1875 33.109375 48.1875 
Q 26.21875 48.1875 22.15625 43.53125 
Q 18.109375 38.875 18.109375 30.90625 
L 18.109375 0 
L 9.078125 0 
L 9.078125 54.6875 
L 18.109375 54.6875 
L 18.109375 46.1875 
Q 21.1875 51.21875 25.484375 53.609375 
Q 29.78125 56 35.6875 56 
Q 41.65625 56 45.828125 52.96875 
Q 50 49.953125 52 44.1875 
z
" id="DejaVuSans-109"/>
      <path d="M 56.203125 29.59375 
L 56.203125 25.203125 
L 14.890625 25.203125 
Q 15.484375 15.921875 20.484375 11.0625 
Q 25.484375 6.203125 34.421875 6.203125 
Q 39.59375 6.203125 44.453125 7.46875 
Q 49.3125 8.734375 54.109375 11.28125 
L 54.109375 2.78125 
Q 49.265625 0.734375 44.1875 -0.34375 
Q 39.109375 -1.421875 33.890625 -1.421875 
Q 20.796875 -1.421875 13.15625 6.1875 
Q 5.515625 13.8125 5.515625 26.8125 
Q 5.515625 40.234375 12.765625 48.109375 
Q 20.015625 56 32.328125 56 
Q 43.359375 56 49.78125 48.890625 
Q 56.203125 41.796875 56.203125 29.59375 
z
M 47.21875 32.234375 
Q 47.125 39.59375 43.09375 43.984375 
Q 39.0625 48.390625 32.421875 48.390625 
Q 24.90625 48.390625 20.390625 44.140625 
Q 15.875 39.890625 15.1875 32.171875 
z
" id="DejaVuSans-101"/>
      <path id="DejaVuSans-32"/>
      <path d="M 31 75.875 
Q 24.46875 64.65625 21.28125 53.65625 
Q 18.109375 42.671875 18.109375 31.390625 
Q 18.109375 20.125 21.3125 9.0625 
Q 24.515625 -2 31 -13.1875 
L 23.1875 -13.1875 
Q 15.875 -1.703125 12.234375 9.375 
Q 8.59375 20.453125 8.59375 31.390625 
Q 8.59375 42.28125 12.203125 53.3125 
Q 15.828125 64.359375 23.1875 75.875 
z
" id="DejaVuSans-40"/>
      <path d="M 54.890625 33.015625 
L 54.890625 0 
L 45.90625 0 
L 45.90625 32.71875 
Q 45.90625 40.484375 42.875 44.328125 
Q 39.84375 48.1875 33.796875 48.1875 
Q 26.515625 48.1875 22.3125 43.546875 
Q 18.109375 38.921875 18.109375 30.90625 
L 18.109375 0 
L 9.078125 0 
L 9.078125 54.6875 
L 18.109375 54.6875 
L 18.109375 46.1875 
Q 21.34375 51.125 25.703125 53.5625 
Q 30.078125 56 35.796875 56 
Q 45.21875 56 50.046875 50.171875 
Q 54.890625 44.34375 54.890625 33.015625 
z
" id="DejaVuSans-110"/>
      <path d="M 44.28125 53.078125 
L 44.28125 44.578125 
Q 40.484375 46.53125 36.375 47.5 
Q 32.28125 48.484375 27.875 48.484375 
Q 21.1875 48.484375 17.84375 46.4375 
Q 14.5 44.390625 14.5 40.28125 
Q 14.5 37.15625 16.890625 35.375 
Q 19.28125 33.59375 26.515625 31.984375 
L 29.59375 31.296875 
Q 39.15625 29.25 43.1875 25.515625 
Q 47.21875 21.78125 47.21875 15.09375 
Q 47.21875 7.46875 41.1875 3.015625 
Q 35.15625 -1.421875 24.609375 -1.421875 
Q 20.21875 -1.421875 15.453125 -0.5625 
Q 10.6875 0.296875 5.421875 2 
L 5.421875 11.28125 
Q 10.40625 8.6875 15.234375 7.390625 
Q 20.0625 6.109375 24.8125 6.109375 
Q 31.15625 6.109375 34.5625 8.28125 
Q 37.984375 10.453125 37.984375 14.40625 
Q 37.984375 18.0625 35.515625 20.015625 
Q 33.0625 21.96875 24.703125 23.78125 
L 21.578125 24.515625 
Q 13.234375 26.265625 9.515625 29.90625 
Q 5.8125 33.546875 5.8125 39.890625 
Q 5.8125 47.609375 11.28125 51.796875 
Q 16.75 56 26.8125 56 
Q 31.78125 56 36.171875 55.265625 
Q 40.578125 54.546875 44.28125 53.078125 
z
" id="DejaVuSans-115"/>
      <path d="M 48.78125 52.59375 
L 48.78125 44.1875 
Q 44.96875 46.296875 41.140625 47.34375 
Q 37.3125 48.390625 33.40625 48.390625 
Q 24.65625 48.390625 19.8125 42.84375 
Q 14.984375 37.3125 14.984375 27.296875 
Q 14.984375 17.28125 19.8125 11.734375 
Q 24.65625 6.203125 33.40625 6.203125 
Q 37.3125 6.203125 41.140625 7.25 
Q 44.96875 8.296875 48.78125 10.40625 
L 48.78125 2.09375 
Q 45.015625 0.34375 40.984375 -0.53125 
Q 36.96875 -1.421875 32.421875 -1.421875 
Q 20.0625 -1.421875 12.78125 6.34375 
Q 5.515625 14.109375 5.515625 27.296875 
Q 5.515625 40.671875 12.859375 48.328125 
Q 20.21875 56 33.015625 56 
Q 37.15625 56 41.109375 55.140625 
Q 45.0625 54.296875 48.78125 52.59375 
z
" id="DejaVuSans-99"/>
      <path d="M 30.609375 48.390625 
Q 23.390625 48.390625 19.1875 42.75 
Q 14.984375 37.109375 14.984375 27.296875 
Q 14.984375 17.484375 19.15625 11.84375 
Q 23.34375 6.203125 30.609375 6.203125 
Q 37.796875 6.203125 41.984375 11.859375 
Q 46.1875 17.53125 46.1875 27.296875 
Q 46.1875 37.015625 41.984375 42.703125 
Q 37.796875 48.390625 30.609375 48.390625 
z
M 30.609375 56 
Q 42.328125 56 49.015625 48.375 
Q 55.71875 40.765625 55.71875 27.296875 
Q 55.71875 13.875 49.015625 6.21875 
Q 42.328125 -1.421875 30.609375 -1.421875 
Q 18.84375 -1.421875 12.171875 6.21875 
Q 5.515625 13.875 5.515625 27.296875 
Q 5.515625 40.765625 12.171875 48.375 
Q 18.84375 56 30.609375 56 
z
" id="DejaVuSans-111"/>
      <path d="M 45.40625 46.390625 
L 45.40625 75.984375 
L 54.390625 75.984375 
L 54.390625 0 
L 45.40625 0 
L 45.40625 8.203125 
Q 42.578125 3.328125 38.25 0.953125 
Q 33.9375 -1.421875 27.875 -1.421875 
Q 17.96875 -1.421875 11.734375 6.484375 
Q 5.515625 14.40625 5.515625 27.296875 
Q 5.515625 40.1875 11.734375 48.09375 
Q 17.96875 56 27.875 56 
Q 33.9375 56 38.25 53.625 
Q 42.578125 51.265625 45.40625 46.390625 
z
M 14.796875 27.296875 
Q 14.796875 17.390625 18.875 11.75 
Q 22.953125 6.109375 30.078125 6.109375 
Q 37.203125 6.109375 41.296875 11.75 
Q 45.40625 17.390625 45.40625 27.296875 
Q 45.40625 37.203125 41.296875 42.84375 
Q 37.203125 48.484375 30.078125 48.484375 
Q 22.953125 48.484375 18.875 42.84375 
Q 14.796875 37.203125 14.796875 27.296875 
z
" id="DejaVuSans-100"/>
      <path d="M 8.015625 75.875 
L 15.828125 75.875 
Q 23.140625 64.359375 26.78125 53.3125 
Q 30.421875 42.28125 30.421875 31.390625 
Q 30.421875 20.453125 26.78125 9.375 
Q 23.140625 -1.703125 15.828125 -13.1875 
L 8.015625 -13.1875 
Q 14.5 -2 17.703125 9.0625 
Q 20.90625 20.125 20.90625 31.390625 
Q 20.90625 42.671875 17.703125 53.65625 
Q 14.5 64.65625 8.015625 75.875 
z
" id="DejaVuSans-41"/>
     </defs>
     <g transform="translate(359.828906 417.076563)scale(0.1 -0.1)">
      <use xlink:href="#DejaVuSans-116"/>
      <use x="39.208984" xlink:href="#DejaVuSans-105"/>
      <use x="66.992188" xlink:href="#DejaVuSans-109"/>
      <use x="164.404297" xlink:href="#DejaVuSans-101"/>
      <use x="225.927734" xlink:href="#DejaVuSans-32"/>
      <use x="257.714844" xlink:href="#DejaVuSans-40"/>
      <use x="296.728516" xlink:href="#DejaVuSans-105"/>
      <use x="324.511719" xlink:href="#DejaVuSans-110"/>
      <use x="387.890625" xlink:href="#DejaVuSans-32"/>
      <use x="419.677734" xlink:href="#DejaVuSans-115"/>
      <use x="471.777344" xlink:href="#DejaVuSans-101"/>
      <use x="533.300781" xlink:href="#DejaVuSans-99"/>
      <use x="588.28125" xlink:href="#DejaVuSans-111"/>
      <use x="649.462891" xlink:href="#DejaVuSans-110"/>
      <use x="712.841797" xlink:href="#DejaVuSans-100"/>
      <use x="776.318359" xlink:href="#DejaVuSans-115"/>
      <use x="828.417969" xlink:href="#DejaVuSans-41"/>
     </g>
    </g>
   </g>
   <g id="matplotlib.axis_2">
    <g id="ytick_1">
     <g id="line2d_17">
      <path clip-path="url(#p6e3ff86c13)" d="M 100.8 374.072727 
L 705.6 374.072727 
" style="fill:none;stroke:#b0b0b0;stroke-linecap:square;stroke-width:0.8;"/>
     </g>
     <g id="line2d_18">
      <defs>
       <path d="M 0 0 
L -3.5 0 
" id="mc52a80375c" style="stroke:#000000;stroke-width:0.8;"/>
      </defs>
      <g>
       <use style="stroke:#000000;stroke-width:0.8;" x="100.8" xlink:href="#mc52a80375c" y="374.072727"/>
      </g>
     </g>
     <g id="text_10">
      <!-- 0.0 -->
      <g transform="translate(77.896875 377.871946)scale(0.1 -0.1)">
       <use xlink:href="#DejaVuSans-48"/>
       <use x="63.623047" xlink:href="#DejaVuSans-46"/>
       <use x="95.410156" xlink:href="#DejaVuSans-48"/>
      </g>
     </g>
    </g>
    <g id="ytick_2">
     <g id="line2d_19">
      <path clip-path="url(#p6e3ff86c13)" d="M 100.8 332.088514 
L 705.6 332.088514 
" style="fill:none;stroke:#b0b0b0;stroke-linecap:square;stroke-width:0.8;"/>
     </g>
     <g id="line2d_20">
      <g>
       <use style="stroke:#000000;stroke-width:0.8;" x="100.8" xlink:href="#mc52a80375c" y="332.088514"/>
      </g>
     </g>
     <g id="text_11">
      <!-- 0.5 -->
      <g transform="translate(77.896875 335.887733)scale(0.1 -0.1)">
       <use xlink:href="#DejaVuSans-48"/>
       <use x="63.623047" xlink:href="#DejaVuSans-46"/>
       <use x="95.410156" xlink:href="#DejaVuSans-53"/>
      </g>
     </g>
    </g>
    <g id="ytick_3">
     <g id="line2d_21">
      <path clip-path="url(#p6e3ff86c13)" d="M 100.8 290.104301 
L 705.6 290.104301 
" style="fill:none;stroke:#b0b0b0;stroke-linecap:square;stroke-width:0.8;"/>
     </g>
     <g id="line2d_22">
      <g>
       <use style="stroke:#000000;stroke-width:0.8;" x="100.8" xlink:href="#mc52a80375c" y="290.104301"/>
      </g>
     </g>
     <g id="text_12">
      <!-- 1.0 -->
      <g transform="translate(77.896875 293.903519)scale(0.1 -0.1)">
       <use xlink:href="#DejaVuSans-49"/>
       <use x="63.623047" xlink:href="#DejaVuSans-46"/>
       <use x="95.410156" xlink:href="#DejaVuSans-48"/>
      </g>
     </g>
    </g>
    <g id="ytick_4">
     <g id="line2d_23">
      <path clip-path="url(#p6e3ff86c13)" d="M 100.8 248.120087 
L 705.6 248.120087 
" style="fill:none;stroke:#b0b0b0;stroke-linecap:square;stroke-width:0.8;"/>
     </g>
     <g id="line2d_24">
      <g>
       <use style="stroke:#000000;stroke-width:0.8;" x="100.8" xlink:href="#mc52a80375c" y="248.120087"/>
      </g>
     </g>
     <g id="text_13">
      <!-- 1.5 -->
      <g transform="translate(77.896875 251.919306)scale(0.1 -0.1)">
       <use xlink:href="#DejaVuSans-49"/>
       <use x="63.623047" xlink:href="#DejaVuSans-46"/>
       <use x="95.410156" xlink:href="#DejaVuSans-53"/>
      </g>
     </g>
    </g>
    <g id="ytick_5">
     <g id="line2d_25">
      <path clip-path="url(#p6e3ff86c13)" d="M 100.8 206.135874 
L 705.6 206.135874 
" style="fill:none;stroke:#b0b0b0;stroke-linecap:square;stroke-width:0.8;"/>
     </g>
     <g id="line2d_26">
      <g>
       <use style="stroke:#000000;stroke-width:0.8;" x="100.8" xlink:href="#mc52a80375c" y="206.135874"/>
      </g>
     </g>
     <g id="text_14">
      <!-- 2.0 -->
      <g transform="translate(77.896875 209.935093)scale(0.1 -0.1)">
       <use xlink:href="#DejaVuSans-50"/>
       <use x="63.623047" xlink:href="#DejaVuSans-46"/>
       <use x="95.410156" xlink:href="#DejaVuSans-48"/>
      </g>
     </g>
    </g>
    <g id="ytick_6">
     <g id="line2d_27">
      <path clip-path="url(#p6e3ff86c13)" d="M 100.8 164.151661 
L 705.6 164.151661 
" style="fill:none;stroke:#b0b0b0;stroke-linecap:square;stroke-width:0.8;"/>
     </g>
     <g id="line2d_28">
      <g>
       <use style="stroke:#000000;stroke-width:0.8;" x="100.8" xlink:href="#mc52a80375c" y="164.151661"/>
      </g>
     </g>
     <g id="text_15">
      <!-- 2.5 -->
      <g transform="translate(77.896875 167.950879)scale(0.1 -0.1)">
       <use xlink:href="#DejaVuSans-50"/>
       <use x="63.623047" xlink:href="#DejaVuSans-46"/>
       <use x="95.410156" xlink:href="#DejaVuSans-53"/>
      </g>
     </g>
    </g>
    <g id="ytick_7">
     <g id="line2d_29">
      <path clip-path="url(#p6e3ff86c13)" d="M 100.8 122.167447 
L 705.6 122.167447 
" style="fill:none;stroke:#b0b0b0;stroke-linecap:square;stroke-width:0.8;"/>
     </g>
     <g id="line2d_30">
      <g>
       <use style="stroke:#000000;stroke-width:0.8;" x="100.8" xlink:href="#mc52a80375c" y="122.167447"/>
      </g>
     </g>
     <g id="text_16">
      <!-- 3.0 -->
      <g transform="translate(77.896875 125.966666)scale(0.1 -0.1)">
       <use xlink:href="#DejaVuSans-51"/>
       <use x="63.623047" xlink:href="#DejaVuSans-46"/>
       <use x="95.410156" xlink:href="#DejaVuSans-48"/>
      </g>
     </g>
    </g>
    <g id="ytick_8">
     <g id="line2d_31">
      <path clip-path="url(#p6e3ff86c13)" d="M 100.8 80.183234 
L 705.6 80.183234 
" style="fill:none;stroke:#b0b0b0;stroke-linecap:square;stroke-width:0.8;"/>
     </g>
     <g id="line2d_32">
      <g>
       <use style="stroke:#000000;stroke-width:0.8;" x="100.8" xlink:href="#mc52a80375c" y="80.183234"/>
      </g>
     </g>
     <g id="text_17">
      <!-- 3.5 -->
      <g transform="translate(77.896875 83.982453)scale(0.1 -0.1)">
       <use xlink:href="#DejaVuSans-51"/>
       <use x="63.623047" xlink:href="#DejaVuSans-46"/>
       <use x="95.410156" xlink:href="#DejaVuSans-53"/>
      </g>
     </g>
    </g>
    <g id="text_18">
     <!-- memory used (in MiB) -->
     <defs>
      <path d="M 41.109375 46.296875 
Q 39.59375 47.171875 37.8125 47.578125 
Q 36.03125 48 33.890625 48 
Q 26.265625 48 22.1875 43.046875 
Q 18.109375 38.09375 18.109375 28.8125 
L 18.109375 0 
L 9.078125 0 
L 9.078125 54.6875 
L 18.109375 54.6875 
L 18.109375 46.1875 
Q 20.953125 51.171875 25.484375 53.578125 
Q 30.03125 56 36.53125 56 
Q 37.453125 56 38.578125 55.875 
Q 39.703125 55.765625 41.0625 55.515625 
z
" id="DejaVuSans-114"/>
      <path d="M 32.171875 -5.078125 
Q 28.375 -14.84375 24.75 -17.8125 
Q 21.140625 -20.796875 15.09375 -20.796875 
L 7.90625 -20.796875 
L 7.90625 -13.28125 
L 13.1875 -13.28125 
Q 16.890625 -13.28125 18.9375 -11.515625 
Q 21 -9.765625 23.484375 -3.21875 
L 25.09375 0.875 
L 2.984375 54.6875 
L 12.5 54.6875 
L 29.59375 11.921875 
L 46.6875 54.6875 
L 56.203125 54.6875 
z
" id="DejaVuSans-121"/>
      <path d="M 8.5 21.578125 
L 8.5 54.6875 
L 17.484375 54.6875 
L 17.484375 21.921875 
Q 17.484375 14.15625 20.5 10.265625 
Q 23.53125 6.390625 29.59375 6.390625 
Q 36.859375 6.390625 41.078125 11.03125 
Q 45.3125 15.671875 45.3125 23.6875 
L 45.3125 54.6875 
L 54.296875 54.6875 
L 54.296875 0 
L 45.3125 0 
L 45.3125 8.40625 
Q 42.046875 3.421875 37.71875 1 
Q 33.40625 -1.421875 27.6875 -1.421875 
Q 18.265625 -1.421875 13.375 4.4375 
Q 8.5 10.296875 8.5 21.578125 
z
M 31.109375 56 
z
" id="DejaVuSans-117"/>
      <path d="M 9.8125 72.90625 
L 24.515625 72.90625 
L 43.109375 23.296875 
L 61.8125 72.90625 
L 76.515625 72.90625 
L 76.515625 0 
L 66.890625 0 
L 66.890625 64.015625 
L 48.09375 14.015625 
L 38.1875 14.015625 
L 19.390625 64.015625 
L 19.390625 0 
L 9.8125 0 
z
" id="DejaVuSans-77"/>
      <path d="M 19.671875 34.8125 
L 19.671875 8.109375 
L 35.5 8.109375 
Q 43.453125 8.109375 47.28125 11.40625 
Q 51.125 14.703125 51.125 21.484375 
Q 51.125 28.328125 47.28125 31.5625 
Q 43.453125 34.8125 35.5 34.8125 
z
M 19.671875 64.796875 
L 19.671875 42.828125 
L 34.28125 42.828125 
Q 41.5 42.828125 45.03125 45.53125 
Q 48.578125 48.25 48.578125 53.8125 
Q 48.578125 59.328125 45.03125 62.0625 
Q 41.5 64.796875 34.28125 64.796875 
z
M 9.8125 72.90625 
L 35.015625 72.90625 
Q 46.296875 72.90625 52.390625 68.21875 
Q 58.5 63.53125 58.5 54.890625 
Q 58.5 48.1875 55.375 44.234375 
Q 52.25 40.28125 46.1875 39.3125 
Q 53.46875 37.75 57.5 32.78125 
Q 61.53125 27.828125 61.53125 20.40625 
Q 61.53125 10.640625 54.890625 5.3125 
Q 48.25 0 35.984375 0 
L 9.8125 0 
z
" id="DejaVuSans-66"/>
     </defs>
     <g transform="translate(71.817188 282.075781)rotate(-90)scale(0.1 -0.1)">
      <use xlink:href="#DejaVuSans-109"/>
      <use x="97.412109" xlink:href="#DejaVuSans-101"/>
      <use x="158.935547" xlink:href="#DejaVuSans-109"/>
      <use x="256.347656" xlink:href="#DejaVuSans-111"/>
      <use x="317.529297" xlink:href="#DejaVuSans-114"/>
      <use x="358.642578" xlink:href="#DejaVuSans-121"/>
      <use x="417.822266" xlink:href="#DejaVuSans-32"/>
      <use x="449.609375" xlink:href="#DejaVuSans-117"/>
      <use x="512.988281" xlink:href="#DejaVuSans-115"/>
      <use x="565.087891" xlink:href="#DejaVuSans-101"/>
      <use x="626.611328" xlink:href="#DejaVuSans-100"/>
      <use x="690.087891" xlink:href="#DejaVuSans-32"/>
      <use x="721.875" xlink:href="#DejaVuSans-40"/>
      <use x="760.888672" xlink:href="#DejaVuSans-105"/>
      <use x="788.671875" xlink:href="#DejaVuSans-110"/>
      <use x="852.050781" xlink:href="#DejaVuSans-32"/>
      <use x="883.837891" xlink:href="#DejaVuSans-77"/>
      <use x="970.117188" xlink:href="#DejaVuSans-105"/>
      <use x="997.900391" xlink:href="#DejaVuSans-66"/>
      <use x="1066.503906" xlink:href="#DejaVuSans-41"/>
     </g>
    </g>
   </g>
   <g id="line2d_33">
    <path clip-path="url(#p6e3ff86c13)" d="M 128.290909 319.624409 
L 137.479771 236.640008 
L 146.670458 122.823409 
L 155.092517 122.823409 
L 164.281378 122.823409 
L 173.472066 122.823409 
L 181.894124 122.823409 
L 191.084812 122.823409 
L 200.273673 122.823409 
L 209.462535 122.823409 
L 218.651397 122.823409 
L 227.840259 122.823409 
L 237.02912 122.823409 
L 246.219808 122.823409 
L 256.173647 101.175341 
L 264.597531 101.175341 
L 273.786393 101.175341 
L 282.210277 101.175341 
L 291.399139 101.175341 
L 300.588001 101.175341 
L 309.011885 101.175341 
L 317.435769 101.175341 
L 327.389608 101.175341 
L 336.57847 101.175341 
L 345.767332 101.175341 
L 354.958019 101.175341 
L 364.146881 101.175341 
L 373.335743 101.175341 
L 383.291408 101.175341 
L 392.48027 101.175341 
L 401.669132 101.175341 
L 410.093016 101.175341 
L 419.281877 101.175341 
L 428.470739 101.175341 
L 437.659601 101.175341 
L 448.380244 101.175341 
L 457.569106 79.527273 
L 466.757967 79.527273 
L 475.948655 79.527273 
L 485.137517 79.527273 
L 494.326378 79.527273 
L 503.51524 79.527273 
L 512.704102 79.527273 
L 521.892964 79.527273 
L 531.083651 79.527273 
L 540.272513 79.527273 
L 549.461375 79.527273 
L 558.650237 79.527273 
L 567.839098 79.527273 
L 576.262982 79.527273 
L 584.686866 79.527273 
L 593.875728 79.527273 
L 603.06459 79.527273 
L 613.020255 79.527273 
L 622.209117 79.527273 
L 632.162956 79.527273 
L 640.58684 79.527273 
L 649.775702 79.527273 
L 659.731367 79.527273 
L 668.920229 79.527273 
L 678.109091 79.527273 
" style="fill:none;stroke:#000000;stroke-linecap:square;stroke-width:1.5;"/>
    <defs>
     <path d="M -3 0 
L 3 0 
M 0 3 
L 0 -3 
" id="m32f4054fd0" style="stroke:#000000;"/>
    </defs>
    <g clip-path="url(#p6e3ff86c13)">
     <use style="stroke:#000000;" x="128.290909" xlink:href="#m32f4054fd0" y="319.624409"/>
     <use style="stroke:#000000;" x="137.479771" xlink:href="#m32f4054fd0" y="236.640008"/>
     <use style="stroke:#000000;" x="146.670458" xlink:href="#m32f4054fd0" y="122.823409"/>
     <use style="stroke:#000000;" x="155.092517" xlink:href="#m32f4054fd0" y="122.823409"/>
     <use style="stroke:#000000;" x="164.281378" xlink:href="#m32f4054fd0" y="122.823409"/>
     <use style="stroke:#000000;" x="173.472066" xlink:href="#m32f4054fd0" y="122.823409"/>
     <use style="stroke:#000000;" x="181.894124" xlink:href="#m32f4054fd0" y="122.823409"/>
     <use style="stroke:#000000;" x="191.084812" xlink:href="#m32f4054fd0" y="122.823409"/>
     <use style="stroke:#000000;" x="200.273673" xlink:href="#m32f4054fd0" y="122.823409"/>
     <use style="stroke:#000000;" x="209.462535" xlink:href="#m32f4054fd0" y="122.823409"/>
     <use style="stroke:#000000;" x="218.651397" xlink:href="#m32f4054fd0" y="122.823409"/>
     <use style="stroke:#000000;" x="227.840259" xlink:href="#m32f4054fd0" y="122.823409"/>
     <use style="stroke:#000000;" x="237.02912" xlink:href="#m32f4054fd0" y="122.823409"/>
     <use style="stroke:#000000;" x="246.219808" xlink:href="#m32f4054fd0" y="122.823409"/>
     <use style="stroke:#000000;" x="256.173647" xlink:href="#m32f4054fd0" y="101.175341"/>
     <use style="stroke:#000000;" x="264.597531" xlink:href="#m32f4054fd0" y="101.175341"/>
     <use style="stroke:#000000;" x="273.786393" xlink:href="#m32f4054fd0" y="101.175341"/>
     <use style="stroke:#000000;" x="282.210277" xlink:href="#m32f4054fd0" y="101.175341"/>
     <use style="stroke:#000000;" x="291.399139" xlink:href="#m32f4054fd0" y="101.175341"/>
     <use style="stroke:#000000;" x="300.588001" xlink:href="#m32f4054fd0" y="101.175341"/>
     <use style="stroke:#000000;" x="309.011885" xlink:href="#m32f4054fd0" y="101.175341"/>
     <use style="stroke:#000000;" x="317.435769" xlink:href="#m32f4054fd0" y="101.175341"/>
     <use style="stroke:#000000;" x="327.389608" xlink:href="#m32f4054fd0" y="101.175341"/>
     <use style="stroke:#000000;" x="336.57847" xlink:href="#m32f4054fd0" y="101.175341"/>
     <use style="stroke:#000000;" x="345.767332" xlink:href="#m32f4054fd0" y="101.175341"/>
     <use style="stroke:#000000;" x="354.958019" xlink:href="#m32f4054fd0" y="101.175341"/>
     <use style="stroke:#000000;" x="364.146881" xlink:href="#m32f4054fd0" y="101.175341"/>
     <use style="stroke:#000000;" x="373.335743" xlink:href="#m32f4054fd0" y="101.175341"/>
     <use style="stroke:#000000;" x="383.291408" xlink:href="#m32f4054fd0" y="101.175341"/>
     <use style="stroke:#000000;" x="392.48027" xlink:href="#m32f4054fd0" y="101.175341"/>
     <use style="stroke:#000000;" x="401.669132" xlink:href="#m32f4054fd0" y="101.175341"/>
     <use style="stroke:#000000;" x="410.093016" xlink:href="#m32f4054fd0" y="101.175341"/>
     <use style="stroke:#000000;" x="419.281877" xlink:href="#m32f4054fd0" y="101.175341"/>
     <use style="stroke:#000000;" x="428.470739" xlink:href="#m32f4054fd0" y="101.175341"/>
     <use style="stroke:#000000;" x="437.659601" xlink:href="#m32f4054fd0" y="101.175341"/>
     <use style="stroke:#000000;" x="448.380244" xlink:href="#m32f4054fd0" y="101.175341"/>
     <use style="stroke:#000000;" x="457.569106" xlink:href="#m32f4054fd0" y="79.527273"/>
     <use style="stroke:#000000;" x="466.757967" xlink:href="#m32f4054fd0" y="79.527273"/>
     <use style="stroke:#000000;" x="475.948655" xlink:href="#m32f4054fd0" y="79.527273"/>
     <use style="stroke:#000000;" x="485.137517" xlink:href="#m32f4054fd0" y="79.527273"/>
     <use style="stroke:#000000;" x="494.326378" xlink:href="#m32f4054fd0" y="79.527273"/>
     <use style="stroke:#000000;" x="503.51524" xlink:href="#m32f4054fd0" y="79.527273"/>
     <use style="stroke:#000000;" x="512.704102" xlink:href="#m32f4054fd0" y="79.527273"/>
     <use style="stroke:#000000;" x="521.892964" xlink:href="#m32f4054fd0" y="79.527273"/>
     <use style="stroke:#000000;" x="531.083651" xlink:href="#m32f4054fd0" y="79.527273"/>
     <use style="stroke:#000000;" x="540.272513" xlink:href="#m32f4054fd0" y="79.527273"/>
     <use style="stroke:#000000;" x="549.461375" xlink:href="#m32f4054fd0" y="79.527273"/>
     <use style="stroke:#000000;" x="558.650237" xlink:href="#m32f4054fd0" y="79.527273"/>
     <use style="stroke:#000000;" x="567.839098" xlink:href="#m32f4054fd0" y="79.527273"/>
     <use style="stroke:#000000;" x="576.262982" xlink:href="#m32f4054fd0" y="79.527273"/>
     <use style="stroke:#000000;" x="584.686866" xlink:href="#m32f4054fd0" y="79.527273"/>
     <use style="stroke:#000000;" x="593.875728" xlink:href="#m32f4054fd0" y="79.527273"/>
     <use style="stroke:#000000;" x="603.06459" xlink:href="#m32f4054fd0" y="79.527273"/>
     <use style="stroke:#000000;" x="613.020255" xlink:href="#m32f4054fd0" y="79.527273"/>
     <use style="stroke:#000000;" x="622.209117" xlink:href="#m32f4054fd0" y="79.527273"/>
     <use style="stroke:#000000;" x="632.162956" xlink:href="#m32f4054fd0" y="79.527273"/>
     <use style="stroke:#000000;" x="640.58684" xlink:href="#m32f4054fd0" y="79.527273"/>
     <use style="stroke:#000000;" x="649.775702" xlink:href="#m32f4054fd0" y="79.527273"/>
     <use style="stroke:#000000;" x="659.731367" xlink:href="#m32f4054fd0" y="79.527273"/>
     <use style="stroke:#000000;" x="668.920229" xlink:href="#m32f4054fd0" y="79.527273"/>
     <use style="stroke:#000000;" x="678.109091" xlink:href="#m32f4054fd0" y="79.527273"/>
    </g>
   </g>
   <g id="line2d_34">
    <path clip-path="url(#p6e3ff86c13)" d="M 128.290909 315.688473 
L 139.011552 230.73602 
L 148.200414 230.73602 
L 156.624298 113.639446 
L 165.81316 113.639446 
L 175.002021 113.639446 
L 184.190883 113.639446 
L 193.381571 113.639446 
L 204.102214 113.639446 
L 213.291075 113.639446 
L 222.479937 113.639446 
L 231.668799 113.639446 
L 240.857661 113.639446 
L 249.281545 113.639446 
L 258.470406 113.639446 
L 267.659268 113.639446 
L 276.849956 113.639446 
L 286.038817 113.639446 
L 295.227679 113.639446 
L 304.416541 113.639446 
L 313.605403 113.639446 
L 322.794265 113.639446 
L 331.218149 113.639446 
L 339.642033 113.639446 
L 349.595872 113.639446 
L 358.019756 113.639446 
L 367.208618 113.639446 
L 376.399305 113.639446 
L 385.588167 113.639446 
L 394.777029 113.639446 
L 403.965891 113.639446 
L 413.154752 113.639446 
L 422.343614 91.991294 
L 431.534302 91.991294 
L 440.723163 91.991294 
L 449.912025 91.991294 
L 459.865865 91.991294 
L 469.056552 91.991294 
L 478.245414 91.991294 
L 487.434276 91.991294 
L 496.623137 91.991294 
L 505.811999 91.991294 
L 515.000861 91.991294 
L 525.721504 91.991294 
L 534.912191 91.991294 
L 543.33425 91.991294 
L 552.524937 91.991294 
L 562.478777 91.991294 
" style="fill:none;stroke:#0000ff;stroke-linecap:square;stroke-width:1.5;"/>
    <defs>
     <path d="M -3 0 
L 3 0 
M 0 3 
L 0 -3 
" id="mb8fcba5cfc" style="stroke:#0000ff;"/>
    </defs>
    <g clip-path="url(#p6e3ff86c13)">
     <use style="fill:#0000ff;stroke:#0000ff;" x="128.290909" xlink:href="#mb8fcba5cfc" y="315.688473"/>
     <use style="fill:#0000ff;stroke:#0000ff;" x="139.011552" xlink:href="#mb8fcba5cfc" y="230.73602"/>
     <use style="fill:#0000ff;stroke:#0000ff;" x="148.200414" xlink:href="#mb8fcba5cfc" y="230.73602"/>
     <use style="fill:#0000ff;stroke:#0000ff;" x="156.624298" xlink:href="#mb8fcba5cfc" y="113.639446"/>
     <use style="fill:#0000ff;stroke:#0000ff;" x="165.81316" xlink:href="#mb8fcba5cfc" y="113.639446"/>
     <use style="fill:#0000ff;stroke:#0000ff;" x="175.002021" xlink:href="#mb8fcba5cfc" y="113.639446"/>
     <use style="fill:#0000ff;stroke:#0000ff;" x="184.190883" xlink:href="#mb8fcba5cfc" y="113.639446"/>
     <use style="fill:#0000ff;stroke:#0000ff;" x="193.381571" xlink:href="#mb8fcba5cfc" y="113.639446"/>
     <use style="fill:#0000ff;stroke:#0000ff;" x="204.102214" xlink:href="#mb8fcba5cfc" y="113.639446"/>
     <use style="fill:#0000ff;stroke:#0000ff;" x="213.291075" xlink:href="#mb8fcba5cfc" y="113.639446"/>
     <use style="fill:#0000ff;stroke:#0000ff;" x="222.479937" xlink:href="#mb8fcba5cfc" y="113.639446"/>
     <use style="fill:#0000ff;stroke:#0000ff;" x="231.668799" xlink:href="#mb8fcba5cfc" y="113.639446"/>
     <use style="fill:#0000ff;stroke:#0000ff;" x="240.857661" xlink:href="#mb8fcba5cfc" y="113.639446"/>
     <use style="fill:#0000ff;stroke:#0000ff;" x="249.281545" xlink:href="#mb8fcba5cfc" y="113.639446"/>
     <use style="fill:#0000ff;stroke:#0000ff;" x="258.470406" xlink:href="#mb8fcba5cfc" y="113.639446"/>
     <use style="fill:#0000ff;stroke:#0000ff;" x="267.659268" xlink:href="#mb8fcba5cfc" y="113.639446"/>
     <use style="fill:#0000ff;stroke:#0000ff;" x="276.849956" xlink:href="#mb8fcba5cfc" y="113.639446"/>
     <use style="fill:#0000ff;stroke:#0000ff;" x="286.038817" xlink:href="#mb8fcba5cfc" y="113.639446"/>
     <use style="fill:#0000ff;stroke:#0000ff;" x="295.227679" xlink:href="#mb8fcba5cfc" y="113.639446"/>
     <use style="fill:#0000ff;stroke:#0000ff;" x="304.416541" xlink:href="#mb8fcba5cfc" y="113.639446"/>
     <use style="fill:#0000ff;stroke:#0000ff;" x="313.605403" xlink:href="#mb8fcba5cfc" y="113.639446"/>
     <use style="fill:#0000ff;stroke:#0000ff;" x="322.794265" xlink:href="#mb8fcba5cfc" y="113.639446"/>
     <use style="fill:#0000ff;stroke:#0000ff;" x="331.218149" xlink:href="#mb8fcba5cfc" y="113.639446"/>
     <use style="fill:#0000ff;stroke:#0000ff;" x="339.642033" xlink:href="#mb8fcba5cfc" y="113.639446"/>
     <use style="fill:#0000ff;stroke:#0000ff;" x="349.595872" xlink:href="#mb8fcba5cfc" y="113.639446"/>
     <use style="fill:#0000ff;stroke:#0000ff;" x="358.019756" xlink:href="#mb8fcba5cfc" y="113.639446"/>
     <use style="fill:#0000ff;stroke:#0000ff;" x="367.208618" xlink:href="#mb8fcba5cfc" y="113.639446"/>
     <use style="fill:#0000ff;stroke:#0000ff;" x="376.399305" xlink:href="#mb8fcba5cfc" y="113.639446"/>
     <use style="fill:#0000ff;stroke:#0000ff;" x="385.588167" xlink:href="#mb8fcba5cfc" y="113.639446"/>
     <use style="fill:#0000ff;stroke:#0000ff;" x="394.777029" xlink:href="#mb8fcba5cfc" y="113.639446"/>
     <use style="fill:#0000ff;stroke:#0000ff;" x="403.965891" xlink:href="#mb8fcba5cfc" y="113.639446"/>
     <use style="fill:#0000ff;stroke:#0000ff;" x="413.154752" xlink:href="#mb8fcba5cfc" y="113.639446"/>
     <use style="fill:#0000ff;stroke:#0000ff;" x="422.343614" xlink:href="#mb8fcba5cfc" y="91.991294"/>
     <use style="fill:#0000ff;stroke:#0000ff;" x="431.534302" xlink:href="#mb8fcba5cfc" y="91.991294"/>
     <use style="fill:#0000ff;stroke:#0000ff;" x="440.723163" xlink:href="#mb8fcba5cfc" y="91.991294"/>
     <use style="fill:#0000ff;stroke:#0000ff;" x="449.912025" xlink:href="#mb8fcba5cfc" y="91.991294"/>
     <use style="fill:#0000ff;stroke:#0000ff;" x="459.865865" xlink:href="#mb8fcba5cfc" y="91.991294"/>
     <use style="fill:#0000ff;stroke:#0000ff;" x="469.056552" xlink:href="#mb8fcba5cfc" y="91.991294"/>
     <use style="fill:#0000ff;stroke:#0000ff;" x="478.245414" xlink:href="#mb8fcba5cfc" y="91.991294"/>
     <use style="fill:#0000ff;stroke:#0000ff;" x="487.434276" xlink:href="#mb8fcba5cfc" y="91.991294"/>
     <use style="fill:#0000ff;stroke:#0000ff;" x="496.623137" xlink:href="#mb8fcba5cfc" y="91.991294"/>
     <use style="fill:#0000ff;stroke:#0000ff;" x="505.811999" xlink:href="#mb8fcba5cfc" y="91.991294"/>
     <use style="fill:#0000ff;stroke:#0000ff;" x="515.000861" xlink:href="#mb8fcba5cfc" y="91.991294"/>
     <use style="fill:#0000ff;stroke:#0000ff;" x="525.721504" xlink:href="#mb8fcba5cfc" y="91.991294"/>
     <use style="fill:#0000ff;stroke:#0000ff;" x="534.912191" xlink:href="#mb8fcba5cfc" y="91.991294"/>
     <use style="fill:#0000ff;stroke:#0000ff;" x="543.33425" xlink:href="#mb8fcba5cfc" y="91.991294"/>
     <use style="fill:#0000ff;stroke:#0000ff;" x="552.524937" xlink:href="#mb8fcba5cfc" y="91.991294"/>
     <use style="fill:#0000ff;stroke:#0000ff;" x="562.478777" xlink:href="#mb8fcba5cfc" y="91.991294"/>
    </g>
   </g>
   <g id="line2d_35">
    <path clip-path="url(#p6e3ff86c13)" d="M 128.290909 315.032427 
L 137.481597 245.496074 
L 145.903655 245.496074 
L 155.094342 245.496074 
L 164.283204 245.496074 
L 173.472066 245.496074 
L 183.425905 245.496074 
L 192.616593 245.496074 
L 201.805455 245.496074 
L 210.994316 245.496074 
L 220.183178 245.496074 
L 229.37204 116.919421 
L 238.560902 116.919421 
L 247.751589 116.919421 
L 256.940451 116.919421 
L 265.364335 116.919421 
L 274.553197 116.919421 
L 283.742058 116.919421 
L 292.93092 116.919421 
L 302.119782 116.919421 
L 310.543666 116.919421 
L 319.732528 116.919421 
L 328.92139 116.919421 
L 338.877055 116.919421 
L 348.830894 116.919421 
L 358.021582 116.919421 
L 367.210444 116.919421 
L 376.399305 116.919421 
L 385.588167 116.919421 
L 394.777029 116.919421 
L 403.200913 116.919421 
L 412.389775 116.919421 
L 421.578636 116.919421 
L 430.767498 116.919421 
L 440.723163 116.919421 
L 449.912025 116.919421 
L 458.335909 116.919421 
L 467.524771 116.919421 
L 476.713633 116.919421 
L 485.902494 116.919421 
L 495.093182 116.919421 
L 504.282044 116.919421 
L 513.470905 116.919421 
L 522.659767 116.919421 
L 532.615432 116.919421 
L 541.037491 116.919421 
L 550.228178 116.919421 
L 559.41704 116.919421 
L 569.37088 116.919421 
L 578.561567 116.919421 
L 586.983625 116.919421 
L 596.939291 116.919421 
L 606.128152 116.919421 
L 615.317014 116.919421 
" style="fill:none;stroke:#ff0000;stroke-linecap:square;stroke-width:1.5;"/>
    <defs>
     <path d="M -3 0 
L 3 0 
M 0 3 
L 0 -3 
" id="mf9248f4cc8" style="stroke:#ff0000;"/>
    </defs>
    <g clip-path="url(#p6e3ff86c13)">
     <use style="fill:#ff0000;stroke:#ff0000;" x="128.290909" xlink:href="#mf9248f4cc8" y="315.032427"/>
     <use style="fill:#ff0000;stroke:#ff0000;" x="137.481597" xlink:href="#mf9248f4cc8" y="245.496074"/>
     <use style="fill:#ff0000;stroke:#ff0000;" x="145.903655" xlink:href="#mf9248f4cc8" y="245.496074"/>
     <use style="fill:#ff0000;stroke:#ff0000;" x="155.094342" xlink:href="#mf9248f4cc8" y="245.496074"/>
     <use style="fill:#ff0000;stroke:#ff0000;" x="164.283204" xlink:href="#mf9248f4cc8" y="245.496074"/>
     <use style="fill:#ff0000;stroke:#ff0000;" x="173.472066" xlink:href="#mf9248f4cc8" y="245.496074"/>
     <use style="fill:#ff0000;stroke:#ff0000;" x="183.425905" xlink:href="#mf9248f4cc8" y="245.496074"/>
     <use style="fill:#ff0000;stroke:#ff0000;" x="192.616593" xlink:href="#mf9248f4cc8" y="245.496074"/>
     <use style="fill:#ff0000;stroke:#ff0000;" x="201.805455" xlink:href="#mf9248f4cc8" y="245.496074"/>
     <use style="fill:#ff0000;stroke:#ff0000;" x="210.994316" xlink:href="#mf9248f4cc8" y="245.496074"/>
     <use style="fill:#ff0000;stroke:#ff0000;" x="220.183178" xlink:href="#mf9248f4cc8" y="245.496074"/>
     <use style="fill:#ff0000;stroke:#ff0000;" x="229.37204" xlink:href="#mf9248f4cc8" y="116.919421"/>
     <use style="fill:#ff0000;stroke:#ff0000;" x="238.560902" xlink:href="#mf9248f4cc8" y="116.919421"/>
     <use style="fill:#ff0000;stroke:#ff0000;" x="247.751589" xlink:href="#mf9248f4cc8" y="116.919421"/>
     <use style="fill:#ff0000;stroke:#ff0000;" x="256.940451" xlink:href="#mf9248f4cc8" y="116.919421"/>
     <use style="fill:#ff0000;stroke:#ff0000;" x="265.364335" xlink:href="#mf9248f4cc8" y="116.919421"/>
     <use style="fill:#ff0000;stroke:#ff0000;" x="274.553197" xlink:href="#mf9248f4cc8" y="116.919421"/>
     <use style="fill:#ff0000;stroke:#ff0000;" x="283.742058" xlink:href="#mf9248f4cc8" y="116.919421"/>
     <use style="fill:#ff0000;stroke:#ff0000;" x="292.93092" xlink:href="#mf9248f4cc8" y="116.919421"/>
     <use style="fill:#ff0000;stroke:#ff0000;" x="302.119782" xlink:href="#mf9248f4cc8" y="116.919421"/>
     <use style="fill:#ff0000;stroke:#ff0000;" x="310.543666" xlink:href="#mf9248f4cc8" y="116.919421"/>
     <use style="fill:#ff0000;stroke:#ff0000;" x="319.732528" xlink:href="#mf9248f4cc8" y="116.919421"/>
     <use style="fill:#ff0000;stroke:#ff0000;" x="328.92139" xlink:href="#mf9248f4cc8" y="116.919421"/>
     <use style="fill:#ff0000;stroke:#ff0000;" x="338.877055" xlink:href="#mf9248f4cc8" y="116.919421"/>
     <use style="fill:#ff0000;stroke:#ff0000;" x="348.830894" xlink:href="#mf9248f4cc8" y="116.919421"/>
     <use style="fill:#ff0000;stroke:#ff0000;" x="358.021582" xlink:href="#mf9248f4cc8" y="116.919421"/>
     <use style="fill:#ff0000;stroke:#ff0000;" x="367.210444" xlink:href="#mf9248f4cc8" y="116.919421"/>
     <use style="fill:#ff0000;stroke:#ff0000;" x="376.399305" xlink:href="#mf9248f4cc8" y="116.919421"/>
     <use style="fill:#ff0000;stroke:#ff0000;" x="385.588167" xlink:href="#mf9248f4cc8" y="116.919421"/>
     <use style="fill:#ff0000;stroke:#ff0000;" x="394.777029" xlink:href="#mf9248f4cc8" y="116.919421"/>
     <use style="fill:#ff0000;stroke:#ff0000;" x="403.200913" xlink:href="#mf9248f4cc8" y="116.919421"/>
     <use style="fill:#ff0000;stroke:#ff0000;" x="412.389775" xlink:href="#mf9248f4cc8" y="116.919421"/>
     <use style="fill:#ff0000;stroke:#ff0000;" x="421.578636" xlink:href="#mf9248f4cc8" y="116.919421"/>
     <use style="fill:#ff0000;stroke:#ff0000;" x="430.767498" xlink:href="#mf9248f4cc8" y="116.919421"/>
     <use style="fill:#ff0000;stroke:#ff0000;" x="440.723163" xlink:href="#mf9248f4cc8" y="116.919421"/>
     <use style="fill:#ff0000;stroke:#ff0000;" x="449.912025" xlink:href="#mf9248f4cc8" y="116.919421"/>
     <use style="fill:#ff0000;stroke:#ff0000;" x="458.335909" xlink:href="#mf9248f4cc8" y="116.919421"/>
     <use style="fill:#ff0000;stroke:#ff0000;" x="467.524771" xlink:href="#mf9248f4cc8" y="116.919421"/>
     <use style="fill:#ff0000;stroke:#ff0000;" x="476.713633" xlink:href="#mf9248f4cc8" y="116.919421"/>
     <use style="fill:#ff0000;stroke:#ff0000;" x="485.902494" xlink:href="#mf9248f4cc8" y="116.919421"/>
     <use style="fill:#ff0000;stroke:#ff0000;" x="495.093182" xlink:href="#mf9248f4cc8" y="116.919421"/>
     <use style="fill:#ff0000;stroke:#ff0000;" x="504.282044" xlink:href="#mf9248f4cc8" y="116.919421"/>
     <use style="fill:#ff0000;stroke:#ff0000;" x="513.470905" xlink:href="#mf9248f4cc8" y="116.919421"/>
     <use style="fill:#ff0000;stroke:#ff0000;" x="522.659767" xlink:href="#mf9248f4cc8" y="116.919421"/>
     <use style="fill:#ff0000;stroke:#ff0000;" x="532.615432" xlink:href="#mf9248f4cc8" y="116.919421"/>
     <use style="fill:#ff0000;stroke:#ff0000;" x="541.037491" xlink:href="#mf9248f4cc8" y="116.919421"/>
     <use style="fill:#ff0000;stroke:#ff0000;" x="550.228178" xlink:href="#mf9248f4cc8" y="116.919421"/>
     <use style="fill:#ff0000;stroke:#ff0000;" x="559.41704" xlink:href="#mf9248f4cc8" y="116.919421"/>
     <use style="fill:#ff0000;stroke:#ff0000;" x="569.37088" xlink:href="#mf9248f4cc8" y="116.919421"/>
     <use style="fill:#ff0000;stroke:#ff0000;" x="578.561567" xlink:href="#mf9248f4cc8" y="116.919421"/>
     <use style="fill:#ff0000;stroke:#ff0000;" x="586.983625" xlink:href="#mf9248f4cc8" y="116.919421"/>
     <use style="fill:#ff0000;stroke:#ff0000;" x="596.939291" xlink:href="#mf9248f4cc8" y="116.919421"/>
     <use style="fill:#ff0000;stroke:#ff0000;" x="606.128152" xlink:href="#mf9248f4cc8" y="116.919421"/>
     <use style="fill:#ff0000;stroke:#ff0000;" x="615.317014" xlink:href="#mf9248f4cc8" y="116.919421"/>
    </g>
   </g>
   <g id="line2d_36">
    <path clip-path="url(#p6e3ff86c13)" d="M 128.290909 311.752369 
L 130.587668 242.216099 
L 132.119449 242.216099 
L 135.183012 242.216099 
L 136.714793 242.216099 
L 138.246574 242.216099 
L 139.77653 104.127335 
L 142.075115 104.127335 
L 143.606896 104.127335 
L 145.136851 104.127335 
L 146.668633 104.127335 
L 148.200414 104.127335 
L 150.497173 104.127335 
L 152.028954 104.127335 
L 153.560735 104.127335 
L 155.092517 104.127335 
L 156.624298 104.127335 
L 158.156079 104.127335 
L 160.452838 104.127335 
L 161.984619 104.127335 
L 163.516401 104.127335 
L 165.81316 104.127335 
L 167.344941 104.127335 
L 168.876722 104.127335 
L 170.408503 104.127335 
L 171.938459 104.127335 
L 174.237044 104.127335 
L 175.768825 104.127335 
L 178.065584 374.072727 
" style="fill:none;stroke:#008000;stroke-linecap:square;stroke-width:1.5;"/>
    <defs>
     <path d="M -3 0 
L 3 0 
M 0 3 
L 0 -3 
" id="ma09061c608" style="stroke:#008000;"/>
    </defs>
    <g clip-path="url(#p6e3ff86c13)">
     <use style="fill:#008000;stroke:#008000;" x="128.290909" xlink:href="#ma09061c608" y="311.752369"/>
     <use style="fill:#008000;stroke:#008000;" x="130.587668" xlink:href="#ma09061c608" y="242.216099"/>
     <use style="fill:#008000;stroke:#008000;" x="132.119449" xlink:href="#ma09061c608" y="242.216099"/>
     <use style="fill:#008000;stroke:#008000;" x="135.183012" xlink:href="#ma09061c608" y="242.216099"/>
     <use style="fill:#008000;stroke:#008000;" x="136.714793" xlink:href="#ma09061c608" y="242.216099"/>
     <use style="fill:#008000;stroke:#008000;" x="138.246574" xlink:href="#ma09061c608" y="242.216099"/>
     <use style="fill:#008000;stroke:#008000;" x="139.77653" xlink:href="#ma09061c608" y="104.127335"/>
     <use style="fill:#008000;stroke:#008000;" x="142.075115" xlink:href="#ma09061c608" y="104.127335"/>
     <use style="fill:#008000;stroke:#008000;" x="143.606896" xlink:href="#ma09061c608" y="104.127335"/>
     <use style="fill:#008000;stroke:#008000;" x="145.136851" xlink:href="#ma09061c608" y="104.127335"/>
     <use style="fill:#008000;stroke:#008000;" x="146.668633" xlink:href="#ma09061c608" y="104.127335"/>
     <use style="fill:#008000;stroke:#008000;" x="148.200414" xlink:href="#ma09061c608" y="104.127335"/>
     <use style="fill:#008000;stroke:#008000;" x="150.497173" xlink:href="#ma09061c608" y="104.127335"/>
     <use style="fill:#008000;stroke:#008000;" x="152.028954" xlink:href="#ma09061c608" y="104.127335"/>
     <use style="fill:#008000;stroke:#008000;" x="153.560735" xlink:href="#ma09061c608" y="104.127335"/>
     <use style="fill:#008000;stroke:#008000;" x="155.092517" xlink:href="#ma09061c608" y="104.127335"/>
     <use style="fill:#008000;stroke:#008000;" x="156.624298" xlink:href="#ma09061c608" y="104.127335"/>
     <use style="fill:#008000;stroke:#008000;" x="158.156079" xlink:href="#ma09061c608" y="104.127335"/>
     <use style="fill:#008000;stroke:#008000;" x="160.452838" xlink:href="#ma09061c608" y="104.127335"/>
     <use style="fill:#008000;stroke:#008000;" x="161.984619" xlink:href="#ma09061c608" y="104.127335"/>
     <use style="fill:#008000;stroke:#008000;" x="163.516401" xlink:href="#ma09061c608" y="104.127335"/>
     <use style="fill:#008000;stroke:#008000;" x="165.81316" xlink:href="#ma09061c608" y="104.127335"/>
     <use style="fill:#008000;stroke:#008000;" x="167.344941" xlink:href="#ma09061c608" y="104.127335"/>
     <use style="fill:#008000;stroke:#008000;" x="168.876722" xlink:href="#ma09061c608" y="104.127335"/>
     <use style="fill:#008000;stroke:#008000;" x="170.408503" xlink:href="#ma09061c608" y="104.127335"/>
     <use style="fill:#008000;stroke:#008000;" x="171.938459" xlink:href="#ma09061c608" y="104.127335"/>
     <use style="fill:#008000;stroke:#008000;" x="174.237044" xlink:href="#ma09061c608" y="104.127335"/>
     <use style="fill:#008000;stroke:#008000;" x="175.768825" xlink:href="#ma09061c608" y="104.127335"/>
     <use style="fill:#008000;stroke:#008000;" x="178.065584" xlink:href="#ma09061c608" y="374.072727"/>
    </g>
   </g>
   <g id="patch_3">
    <path d="M 100.8 388.8 
L 100.8 64.8 
" style="fill:none;stroke:#000000;stroke-linecap:square;stroke-linejoin:miter;stroke-width:0.8;"/>
   </g>
   <g id="patch_4">
    <path d="M 705.6 388.8 
L 705.6 64.8 
" style="fill:none;stroke:#000000;stroke-linecap:square;stroke-linejoin:miter;stroke-width:0.8;"/>
   </g>
   <g id="patch_5">
    <path d="M 100.8 388.8 
L 705.6 388.8 
" style="fill:none;stroke:#000000;stroke-linecap:square;stroke-linejoin:miter;stroke-width:0.8;"/>
   </g>
   <g id="patch_6">
    <path d="M 100.8 64.8 
L 705.6 64.8 
" style="fill:none;stroke:#000000;stroke-linecap:square;stroke-linejoin:miter;stroke-width:0.8;"/>
   </g>
   <g id="legend_1">
    <g id="patch_7">
     <path d="M 712.6 257.65625 
L 931.785937 257.65625 
Q 933.785937 257.65625 933.785937 255.65625 
L 933.785937 197.94375 
Q 933.785937 195.94375 931.785937 195.94375 
L 712.6 195.94375 
Q 710.6 195.94375 710.6 197.94375 
L 710.6 255.65625 
Q 710.6 257.65625 712.6 257.65625 
z
" style="fill:#ffffff;opacity:0.5;stroke:#cccccc;stroke-linejoin:miter;"/>
    </g>
    <g id="line2d_37">
     <path d="M 714.6 204.042188 
L 734.6 204.042188 
" style="fill:none;stroke:#000000;stroke-linecap:square;stroke-width:1.5;"/>
    </g>
    <g id="line2d_38">
     <g>
      <use style="stroke:#000000;" x="724.6" xlink:href="#m32f4054fd0" y="204.042188"/>
     </g>
    </g>
    <g id="text_19">
     <!-- 05 / 04 / 2019 - start at 11:43:49.061 -->
     <defs>
      <path d="M 25.390625 72.90625 
L 33.6875 72.90625 
L 8.296875 -9.28125 
L 0 -9.28125 
z
" id="DejaVuSans-47"/>
      <path d="M 10.984375 1.515625 
L 10.984375 10.5 
Q 14.703125 8.734375 18.5 7.8125 
Q 22.3125 6.890625 25.984375 6.890625 
Q 35.75 6.890625 40.890625 13.453125 
Q 46.046875 20.015625 46.78125 33.40625 
Q 43.953125 29.203125 39.59375 26.953125 
Q 35.25 24.703125 29.984375 24.703125 
Q 19.046875 24.703125 12.671875 31.3125 
Q 6.296875 37.9375 6.296875 49.421875 
Q 6.296875 60.640625 12.9375 67.421875 
Q 19.578125 74.21875 30.609375 74.21875 
Q 43.265625 74.21875 49.921875 64.515625 
Q 56.59375 54.828125 56.59375 36.375 
Q 56.59375 19.140625 48.40625 8.859375 
Q 40.234375 -1.421875 26.421875 -1.421875 
Q 22.703125 -1.421875 18.890625 -0.6875 
Q 15.09375 0.046875 10.984375 1.515625 
z
M 30.609375 32.421875 
Q 37.25 32.421875 41.125 36.953125 
Q 45.015625 41.5 45.015625 49.421875 
Q 45.015625 57.28125 41.125 61.84375 
Q 37.25 66.40625 30.609375 66.40625 
Q 23.96875 66.40625 20.09375 61.84375 
Q 16.21875 57.28125 16.21875 49.421875 
Q 16.21875 41.5 20.09375 36.953125 
Q 23.96875 32.421875 30.609375 32.421875 
z
" id="DejaVuSans-57"/>
      <path d="M 4.890625 31.390625 
L 31.203125 31.390625 
L 31.203125 23.390625 
L 4.890625 23.390625 
z
" id="DejaVuSans-45"/>
      <path d="M 34.28125 27.484375 
Q 23.390625 27.484375 19.1875 25 
Q 14.984375 22.515625 14.984375 16.5 
Q 14.984375 11.71875 18.140625 8.90625 
Q 21.296875 6.109375 26.703125 6.109375 
Q 34.1875 6.109375 38.703125 11.40625 
Q 43.21875 16.703125 43.21875 25.484375 
L 43.21875 27.484375 
z
M 52.203125 31.203125 
L 52.203125 0 
L 43.21875 0 
L 43.21875 8.296875 
Q 40.140625 3.328125 35.546875 0.953125 
Q 30.953125 -1.421875 24.3125 -1.421875 
Q 15.921875 -1.421875 10.953125 3.296875 
Q 6 8.015625 6 15.921875 
Q 6 25.140625 12.171875 29.828125 
Q 18.359375 34.515625 30.609375 34.515625 
L 43.21875 34.515625 
L 43.21875 35.40625 
Q 43.21875 41.609375 39.140625 45 
Q 35.0625 48.390625 27.6875 48.390625 
Q 23 48.390625 18.546875 47.265625 
Q 14.109375 46.140625 10.015625 43.890625 
L 10.015625 52.203125 
Q 14.9375 54.109375 19.578125 55.046875 
Q 24.21875 56 28.609375 56 
Q 40.484375 56 46.34375 49.84375 
Q 52.203125 43.703125 52.203125 31.203125 
z
" id="DejaVuSans-97"/>
      <path d="M 11.71875 12.40625 
L 22.015625 12.40625 
L 22.015625 0 
L 11.71875 0 
z
M 11.71875 51.703125 
L 22.015625 51.703125 
L 22.015625 39.3125 
L 11.71875 39.3125 
z
" id="DejaVuSans-58"/>
     </defs>
     <g transform="translate(742.6 207.542188)scale(0.1 -0.1)">
      <use xlink:href="#DejaVuSans-48"/>
      <use x="63.623047" xlink:href="#DejaVuSans-53"/>
      <use x="127.246094" xlink:href="#DejaVuSans-32"/>
      <use x="159.033203" xlink:href="#DejaVuSans-47"/>
      <use x="192.724609" xlink:href="#DejaVuSans-32"/>
      <use x="224.511719" xlink:href="#DejaVuSans-48"/>
      <use x="288.134766" xlink:href="#DejaVuSans-52"/>
      <use x="351.757812" xlink:href="#DejaVuSans-32"/>
      <use x="383.544922" xlink:href="#DejaVuSans-47"/>
      <use x="417.236328" xlink:href="#DejaVuSans-32"/>
      <use x="449.023438" xlink:href="#DejaVuSans-50"/>
      <use x="512.646484" xlink:href="#DejaVuSans-48"/>
      <use x="576.269531" xlink:href="#DejaVuSans-49"/>
      <use x="639.892578" xlink:href="#DejaVuSans-57"/>
      <use x="703.515625" xlink:href="#DejaVuSans-32"/>
      <use x="735.302734" xlink:href="#DejaVuSans-45"/>
      <use x="771.386719" xlink:href="#DejaVuSans-32"/>
      <use x="803.173828" xlink:href="#DejaVuSans-115"/>
      <use x="855.273438" xlink:href="#DejaVuSans-116"/>
      <use x="894.482422" xlink:href="#DejaVuSans-97"/>
      <use x="955.761719" xlink:href="#DejaVuSans-114"/>
      <use x="996.875" xlink:href="#DejaVuSans-116"/>
      <use x="1036.083984" xlink:href="#DejaVuSans-32"/>
      <use x="1067.871094" xlink:href="#DejaVuSans-97"/>
      <use x="1129.150391" xlink:href="#DejaVuSans-116"/>
      <use x="1168.359375" xlink:href="#DejaVuSans-32"/>
      <use x="1200.146484" xlink:href="#DejaVuSans-49"/>
      <use x="1263.769531" xlink:href="#DejaVuSans-49"/>
      <use x="1327.392578" xlink:href="#DejaVuSans-58"/>
      <use x="1361.083984" xlink:href="#DejaVuSans-52"/>
      <use x="1424.707031" xlink:href="#DejaVuSans-51"/>
      <use x="1488.330078" xlink:href="#DejaVuSans-58"/>
      <use x="1522.021484" xlink:href="#DejaVuSans-52"/>
      <use x="1585.644531" xlink:href="#DejaVuSans-57"/>
      <use x="1649.267578" xlink:href="#DejaVuSans-46"/>
      <use x="1681.054688" xlink:href="#DejaVuSans-48"/>
      <use x="1744.677734" xlink:href="#DejaVuSans-54"/>
      <use x="1808.300781" xlink:href="#DejaVuSans-49"/>
     </g>
    </g>
    <g id="line2d_39">
     <path d="M 714.6 218.720313 
L 734.6 218.720313 
" style="fill:none;stroke:#0000ff;stroke-linecap:square;stroke-width:1.5;"/>
    </g>
    <g id="line2d_40">
     <g>
      <use style="fill:#0000ff;stroke:#0000ff;" x="724.6" xlink:href="#mb8fcba5cfc" y="218.720313"/>
     </g>
    </g>
    <g id="text_20">
     <!-- 05 / 04 / 2019 - start at 11:47:13.575 -->
     <g transform="translate(742.6 222.220313)scale(0.1 -0.1)">
      <use xlink:href="#DejaVuSans-48"/>
      <use x="63.623047" xlink:href="#DejaVuSans-53"/>
      <use x="127.246094" xlink:href="#DejaVuSans-32"/>
      <use x="159.033203" xlink:href="#DejaVuSans-47"/>
      <use x="192.724609" xlink:href="#DejaVuSans-32"/>
      <use x="224.511719" xlink:href="#DejaVuSans-48"/>
      <use x="288.134766" xlink:href="#DejaVuSans-52"/>
      <use x="351.757812" xlink:href="#DejaVuSans-32"/>
      <use x="383.544922" xlink:href="#DejaVuSans-47"/>
      <use x="417.236328" xlink:href="#DejaVuSans-32"/>
      <use x="449.023438" xlink:href="#DejaVuSans-50"/>
      <use x="512.646484" xlink:href="#DejaVuSans-48"/>
      <use x="576.269531" xlink:href="#DejaVuSans-49"/>
      <use x="639.892578" xlink:href="#DejaVuSans-57"/>
      <use x="703.515625" xlink:href="#DejaVuSans-32"/>
      <use x="735.302734" xlink:href="#DejaVuSans-45"/>
      <use x="771.386719" xlink:href="#DejaVuSans-32"/>
      <use x="803.173828" xlink:href="#DejaVuSans-115"/>
      <use x="855.273438" xlink:href="#DejaVuSans-116"/>
      <use x="894.482422" xlink:href="#DejaVuSans-97"/>
      <use x="955.761719" xlink:href="#DejaVuSans-114"/>
      <use x="996.875" xlink:href="#DejaVuSans-116"/>
      <use x="1036.083984" xlink:href="#DejaVuSans-32"/>
      <use x="1067.871094" xlink:href="#DejaVuSans-97"/>
      <use x="1129.150391" xlink:href="#DejaVuSans-116"/>
      <use x="1168.359375" xlink:href="#DejaVuSans-32"/>
      <use x="1200.146484" xlink:href="#DejaVuSans-49"/>
      <use x="1263.769531" xlink:href="#DejaVuSans-49"/>
      <use x="1327.392578" xlink:href="#DejaVuSans-58"/>
      <use x="1361.083984" xlink:href="#DejaVuSans-52"/>
      <use x="1424.707031" xlink:href="#DejaVuSans-55"/>
      <use x="1488.330078" xlink:href="#DejaVuSans-58"/>
      <use x="1522.021484" xlink:href="#DejaVuSans-49"/>
      <use x="1585.644531" xlink:href="#DejaVuSans-51"/>
      <use x="1649.267578" xlink:href="#DejaVuSans-46"/>
      <use x="1681.054688" xlink:href="#DejaVuSans-53"/>
      <use x="1744.677734" xlink:href="#DejaVuSans-55"/>
      <use x="1808.300781" xlink:href="#DejaVuSans-53"/>
     </g>
    </g>
    <g id="line2d_41">
     <path d="M 714.6 233.398438 
L 734.6 233.398438 
" style="fill:none;stroke:#ff0000;stroke-linecap:square;stroke-width:1.5;"/>
    </g>
    <g id="line2d_42">
     <g>
      <use style="fill:#ff0000;stroke:#ff0000;" x="724.6" xlink:href="#mf9248f4cc8" y="233.398438"/>
     </g>
    </g>
    <g id="text_21">
     <!-- 05 / 04 / 2019 - start at 12:05:06.002 -->
     <g transform="translate(742.6 236.898438)scale(0.1 -0.1)">
      <use xlink:href="#DejaVuSans-48"/>
      <use x="63.623047" xlink:href="#DejaVuSans-53"/>
      <use x="127.246094" xlink:href="#DejaVuSans-32"/>
      <use x="159.033203" xlink:href="#DejaVuSans-47"/>
      <use x="192.724609" xlink:href="#DejaVuSans-32"/>
      <use x="224.511719" xlink:href="#DejaVuSans-48"/>
      <use x="288.134766" xlink:href="#DejaVuSans-52"/>
      <use x="351.757812" xlink:href="#DejaVuSans-32"/>
      <use x="383.544922" xlink:href="#DejaVuSans-47"/>
      <use x="417.236328" xlink:href="#DejaVuSans-32"/>
      <use x="449.023438" xlink:href="#DejaVuSans-50"/>
      <use x="512.646484" xlink:href="#DejaVuSans-48"/>
      <use x="576.269531" xlink:href="#DejaVuSans-49"/>
      <use x="639.892578" xlink:href="#DejaVuSans-57"/>
      <use x="703.515625" xlink:href="#DejaVuSans-32"/>
      <use x="735.302734" xlink:href="#DejaVuSans-45"/>
      <use x="771.386719" xlink:href="#DejaVuSans-32"/>
      <use x="803.173828" xlink:href="#DejaVuSans-115"/>
      <use x="855.273438" xlink:href="#DejaVuSans-116"/>
      <use x="894.482422" xlink:href="#DejaVuSans-97"/>
      <use x="955.761719" xlink:href="#DejaVuSans-114"/>
      <use x="996.875" xlink:href="#DejaVuSans-116"/>
      <use x="1036.083984" xlink:href="#DejaVuSans-32"/>
      <use x="1067.871094" xlink:href="#DejaVuSans-97"/>
      <use x="1129.150391" xlink:href="#DejaVuSans-116"/>
      <use x="1168.359375" xlink:href="#DejaVuSans-32"/>
      <use x="1200.146484" xlink:href="#DejaVuSans-49"/>
      <use x="1263.769531" xlink:href="#DejaVuSans-50"/>
      <use x="1327.392578" xlink:href="#DejaVuSans-58"/>
      <use x="1361.083984" xlink:href="#DejaVuSans-48"/>
      <use x="1424.707031" xlink:href="#DejaVuSans-53"/>
      <use x="1488.330078" xlink:href="#DejaVuSans-58"/>
      <use x="1522.021484" xlink:href="#DejaVuSans-48"/>
      <use x="1585.644531" xlink:href="#DejaVuSans-54"/>
      <use x="1649.267578" xlink:href="#DejaVuSans-46"/>
      <use x="1681.054688" xlink:href="#DejaVuSans-48"/>
      <use x="1744.677734" xlink:href="#DejaVuSans-48"/>
      <use x="1808.300781" xlink:href="#DejaVuSans-50"/>
     </g>
    </g>
    <g id="line2d_43">
     <path d="M 714.6 248.076563 
L 734.6 248.076563 
" style="fill:none;stroke:#008000;stroke-linecap:square;stroke-width:1.5;"/>
    </g>
    <g id="line2d_44">
     <g>
      <use style="fill:#008000;stroke:#008000;" x="724.6" xlink:href="#ma09061c608" y="248.076563"/>
     </g>
    </g>
    <g id="text_22">
     <!-- 05 / 04 / 2019 - start at 11:16:28.254 -->
     <defs>
      <path d="M 31.78125 34.625 
Q 24.75 34.625 20.71875 30.859375 
Q 16.703125 27.09375 16.703125 20.515625 
Q 16.703125 13.921875 20.71875 10.15625 
Q 24.75 6.390625 31.78125 6.390625 
Q 38.8125 6.390625 42.859375 10.171875 
Q 46.921875 13.96875 46.921875 20.515625 
Q 46.921875 27.09375 42.890625 30.859375 
Q 38.875 34.625 31.78125 34.625 
z
M 21.921875 38.8125 
Q 15.578125 40.375 12.03125 44.71875 
Q 8.5 49.078125 8.5 55.328125 
Q 8.5 64.0625 14.71875 69.140625 
Q 20.953125 74.21875 31.78125 74.21875 
Q 42.671875 74.21875 48.875 69.140625 
Q 55.078125 64.0625 55.078125 55.328125 
Q 55.078125 49.078125 51.53125 44.71875 
Q 48 40.375 41.703125 38.8125 
Q 48.828125 37.15625 52.796875 32.3125 
Q 56.78125 27.484375 56.78125 20.515625 
Q 56.78125 9.90625 50.3125 4.234375 
Q 43.84375 -1.421875 31.78125 -1.421875 
Q 19.734375 -1.421875 13.25 4.234375 
Q 6.78125 9.90625 6.78125 20.515625 
Q 6.78125 27.484375 10.78125 32.3125 
Q 14.796875 37.15625 21.921875 38.8125 
z
M 18.3125 54.390625 
Q 18.3125 48.734375 21.84375 45.5625 
Q 25.390625 42.390625 31.78125 42.390625 
Q 38.140625 42.390625 41.71875 45.5625 
Q 45.3125 48.734375 45.3125 54.390625 
Q 45.3125 60.0625 41.71875 63.234375 
Q 38.140625 66.40625 31.78125 66.40625 
Q 25.390625 66.40625 21.84375 63.234375 
Q 18.3125 60.0625 18.3125 54.390625 
z
" id="DejaVuSans-56"/>
     </defs>
     <g transform="translate(742.6 251.576563)scale(0.1 -0.1)">
      <use xlink:href="#DejaVuSans-48"/>
      <use x="63.623047" xlink:href="#DejaVuSans-53"/>
      <use x="127.246094" xlink:href="#DejaVuSans-32"/>
      <use x="159.033203" xlink:href="#DejaVuSans-47"/>
      <use x="192.724609" xlink:href="#DejaVuSans-32"/>
      <use x="224.511719" xlink:href="#DejaVuSans-48"/>
      <use x="288.134766" xlink:href="#DejaVuSans-52"/>
      <use x="351.757812" xlink:href="#DejaVuSans-32"/>
      <use x="383.544922" xlink:href="#DejaVuSans-47"/>
      <use x="417.236328" xlink:href="#DejaVuSans-32"/>
      <use x="449.023438" xlink:href="#DejaVuSans-50"/>
      <use x="512.646484" xlink:href="#DejaVuSans-48"/>
      <use x="576.269531" xlink:href="#DejaVuSans-49"/>
      <use x="639.892578" xlink:href="#DejaVuSans-57"/>
      <use x="703.515625" xlink:href="#DejaVuSans-32"/>
      <use x="735.302734" xlink:href="#DejaVuSans-45"/>
      <use x="771.386719" xlink:href="#DejaVuSans-32"/>
      <use x="803.173828" xlink:href="#DejaVuSans-115"/>
      <use x="855.273438" xlink:href="#DejaVuSans-116"/>
      <use x="894.482422" xlink:href="#DejaVuSans-97"/>
      <use x="955.761719" xlink:href="#DejaVuSans-114"/>
      <use x="996.875" xlink:href="#DejaVuSans-116"/>
      <use x="1036.083984" xlink:href="#DejaVuSans-32"/>
      <use x="1067.871094" xlink:href="#DejaVuSans-97"/>
      <use x="1129.150391" xlink:href="#DejaVuSans-116"/>
      <use x="1168.359375" xlink:href="#DejaVuSans-32"/>
      <use x="1200.146484" xlink:href="#DejaVuSans-49"/>
      <use x="1263.769531" xlink:href="#DejaVuSans-49"/>
      <use x="1327.392578" xlink:href="#DejaVuSans-58"/>
      <use x="1361.083984" xlink:href="#DejaVuSans-49"/>
      <use x="1424.707031" xlink:href="#DejaVuSans-54"/>
      <use x="1488.330078" xlink:href="#DejaVuSans-58"/>
      <use x="1522.021484" xlink:href="#DejaVuSans-50"/>
      <use x="1585.644531" xlink:href="#DejaVuSans-56"/>
      <use x="1649.267578" xlink:href="#DejaVuSans-46"/>
      <use x="1681.054688" xlink:href="#DejaVuSans-50"/>
      <use x="1744.677734" xlink:href="#DejaVuSans-53"/>
      <use x="1808.300781" xlink:href="#DejaVuSans-52"/>
     </g>
    </g>
   </g>
  </g>
 </g>
 <defs>
  <clipPath id="p6e3ff86c13">
   <rect height="324" width="604.8" x="100.8" y="64.8"/>
  </clipPath>
 </defs>
</svg>
