<?xml version="1.0" encoding="UTF-8"?>
<!DOCTYPE svg PUBLIC "-//W3C//DTD SVG 1.1//EN" "http://www.w3.org/Graphics/SVG/1.1/DTD/svg11.dtd">
<svg width="195mm" height="110mm" viewBox="0 0 19500 11000" version="1.1" xmlns="http://www.w3.org/2000/svg" xmlns:xlink="http://www.w3.org/1999/xlink" stroke-width="28.222" stroke-linejoin="round" xml:space="preserve">
 <path fill="rgb(255,255,255)" stroke="none" d="M 9771,10988 L 0,10988 0,0 19541,0 19541,10988 9771,10988 Z"/>
 <path fill="none" stroke="rgb(179,179,179)" stroke-linejoin="round" d="M 9316,9141 L 1837,9141 1837,1353 16794,1353 16794,9141 9316,9141 Z"/>
 <path fill="none" stroke="rgb(179,179,179)" stroke-linejoin="round" d="M 1837,1352 L 1837,9140"/>
 <path fill="none" stroke="rgb(179,179,179)" stroke-linejoin="round" d="M 3706,1352 L 3706,9140"/>
 <path fill="none" stroke="rgb(179,179,179)" stroke-linejoin="round" d="M 5576,1352 L 5576,9140"/>
 <path fill="none" stroke="rgb(179,179,179)" stroke-linejoin="round" d="M 7446,1352 L 7446,9140"/>
 <path fill="none" stroke="rgb(179,179,179)" stroke-linejoin="round" d="M 9316,1352 L 9316,9140"/>
 <path fill="none" stroke="rgb(179,179,179)" stroke-linejoin="round" d="M 11184,1352 L 11184,9140"/>
 <path fill="none" stroke="rgb(179,179,179)" stroke-linejoin="round" d="M 13054,1352 L 13054,9140"/>
 <path fill="none" stroke="rgb(179,179,179)" stroke-linejoin="round" d="M 14924,1352 L 14924,9140"/>
 <path fill="none" stroke="rgb(179,179,179)" stroke-linejoin="round" d="M 16794,1352 L 16794,9140"/>
 <path fill="none" stroke="rgb(179,179,179)" stroke-linejoin="round" d="M 1687,9140 L 1837,9140"/>
 <path fill="none" stroke="rgb(179,179,179)" stroke-linejoin="round" d="M 1687,9140 L 1837,9140"/>
 <path fill="none" stroke="rgb(179,179,179)" stroke-linejoin="round" d="M 1687,7192 L 1837,7192"/>
 <path fill="none" stroke="rgb(179,179,179)" stroke-linejoin="round" d="M 1687,7192 L 1837,7192"/>
 <path fill="none" stroke="rgb(179,179,179)" stroke-linejoin="round" d="M 1687,5246 L 1837,5246"/>
 <path fill="none" stroke="rgb(179,179,179)" stroke-linejoin="round" d="M 1687,5246 L 1837,5246"/>
 <path fill="none" stroke="rgb(179,179,179)" stroke-linejoin="round" d="M 1687,3299 L 1837,3299"/>
 <path fill="none" stroke="rgb(179,179,179)" stroke-linejoin="round" d="M 1687,3299 L 1837,3299"/>
 <path fill="none" stroke="rgb(179,179,179)" stroke-linejoin="round" d="M 1687,1352 L 1837,1352"/>
 <path fill="none" stroke="rgb(179,179,179)" stroke-linejoin="round" d="M 1687,1352 L 1837,1352"/>
 <path fill="none" stroke="rgb(179,179,179)" stroke-linejoin="round" d="M 1837,9140 L 1837,1352"/>
 <path fill="none" stroke="rgb(179,179,179)" stroke-linejoin="round" d="M 1837,9290 L 1837,9140"/>
 <path fill="none" stroke="rgb(179,179,179)" stroke-linejoin="round" d="M 1837,9290 L 1837,9140"/>
 <path fill="none" stroke="rgb(179,179,179)" stroke-linejoin="round" d="M 3706,9290 L 3706,9140"/>
 <path fill="none" stroke="rgb(179,179,179)" stroke-linejoin="round" d="M 3706,9290 L 3706,9140"/>
 <path fill="none" stroke="rgb(179,179,179)" stroke-linejoin="round" d="M 5576,9290 L 5576,9140"/>
 <path fill="none" stroke="rgb(179,179,179)" stroke-linejoin="round" d="M 5576,9290 L 5576,9140"/>
 <path fill="none" stroke="rgb(179,179,179)" stroke-linejoin="round" d="M 7446,9290 L 7446,9140"/>
 <path fill="none" stroke="rgb(179,179,179)" stroke-linejoin="round" d="M 7446,9290 L 7446,9140"/>
 <path fill="none" stroke="rgb(179,179,179)" stroke-linejoin="round" d="M 9316,9290 L 9316,9140"/>
 <path fill="none" stroke="rgb(179,179,179)" stroke-linejoin="round" d="M 9316,9290 L 9316,9140"/>
 <path fill="none" stroke="rgb(179,179,179)" stroke-linejoin="round" d="M 11184,9290 L 11184,9140"/>
 <path fill="none" stroke="rgb(179,179,179)" stroke-linejoin="round" d="M 11184,9290 L 11184,9140"/>
 <path fill="none" stroke="rgb(179,179,179)" stroke-linejoin="round" d="M 13054,9290 L 13054,9140"/>
 <path fill="none" stroke="rgb(179,179,179)" stroke-linejoin="round" d="M 13054,9290 L 13054,9140"/>
 <path fill="none" stroke="rgb(179,179,179)" stroke-linejoin="round" d="M 14924,9290 L 14924,9140"/>
 <path fill="none" stroke="rgb(179,179,179)" stroke-linejoin="round" d="M 14924,9290 L 14924,9140"/>
 <path fill="none" stroke="rgb(179,179,179)" stroke-linejoin="round" d="M 16794,9290 L 16794,9140"/>
 <path fill="none" stroke="rgb(179,179,179)" stroke-linejoin="round" d="M 16794,9290 L 16794,9140"/>
 <path fill="none" stroke="rgb(179,179,179)" stroke-linejoin="round" d="M 1837,9140 L 16794,9140"/>
 <path fill="rgb(0,69,134)" stroke="none" d="M 1837,2812 L 1837,1838 2898,1838 2898,2812 1837,2812 Z"/>
 <path fill="rgb(0,69,134)" stroke="none" d="M 1837,4759 L 1837,3786 11571,3786 11571,4759 1837,4759 Z"/>
 <path fill="rgb(0,69,134)" stroke="none" d="M 1837,6705 L 1837,5732 11985,5732 11985,6705 1837,6705 Z"/>
 <path fill="rgb(0,69,134)" stroke="none" d="M 1837,8653 L 1837,7679 14860,7679 14860,8653 1837,8653 Z"/>
 <text class="TextShape"><tspan class="TextParagraph" font-family="Liberation Sans, sans-serif" font-size="353px" font-weight="400"><tspan class="TextPosition" x="1402" y="8287"><tspan fill="rgb(0,0,0)" stroke="none">1</tspan></tspan></tspan></text>
 <text class="TextShape"><tspan class="TextParagraph" font-family="Liberation Sans, sans-serif" font-size="353px" font-weight="400"><tspan class="TextPosition" x="1402" y="6340"><tspan fill="rgb(0,0,0)" stroke="none">2</tspan></tspan></tspan></text>
 <text class="TextShape"><tspan class="TextParagraph" font-family="Liberation Sans, sans-serif" font-size="353px" font-weight="400"><tspan class="TextPosition" x="1402" y="4392"><tspan fill="rgb(0,0,0)" stroke="none">3</tspan></tspan></tspan></text>
 <text class="TextShape"><tspan class="TextParagraph" font-family="Liberation Sans, sans-serif" font-size="353px" font-weight="400"><tspan class="TextPosition" x="1402" y="2445"><tspan fill="rgb(0,0,0)" stroke="none">4</tspan></tspan></tspan></text>
 <text class="TextShape"><tspan class="TextParagraph" font-family="Liberation Sans, sans-serif" font-size="353px" font-weight="400"><tspan class="TextPosition" x="1744" y="9708"><tspan fill="rgb(0,0,0)" stroke="none">0</tspan></tspan></tspan></text>
 <text class="TextShape"><tspan class="TextParagraph" font-family="Liberation Sans, sans-serif" font-size="353px" font-weight="400"><tspan class="TextPosition" x="3375" y="9708"><tspan fill="rgb(0,0,0)" stroke="none">0.01</tspan></tspan></tspan></text>
 <text class="TextShape"><tspan class="TextParagraph" font-family="Liberation Sans, sans-serif" font-size="353px" font-weight="400"><tspan class="TextPosition" x="5245" y="9708"><tspan fill="rgb(0,0,0)" stroke="none">0.02</tspan></tspan></tspan></text>
 <text class="TextShape"><tspan class="TextParagraph" font-family="Liberation Sans, sans-serif" font-size="353px" font-weight="400"><tspan class="TextPosition" x="7115" y="9708"><tspan fill="rgb(0,0,0)" stroke="none">0.03</tspan></tspan></tspan></text>
 <text class="TextShape"><tspan class="TextParagraph" font-family="Liberation Sans, sans-serif" font-size="353px" font-weight="400"><tspan class="TextPosition" x="8985" y="9708"><tspan fill="rgb(0,0,0)" stroke="none">0.04</tspan></tspan></tspan></text>
 <text class="TextShape"><tspan class="TextParagraph" font-family="Liberation Sans, sans-serif" font-size="353px" font-weight="400"><tspan class="TextPosition" x="10854" y="9708"><tspan fill="rgb(0,0,0)" stroke="none">0.05</tspan></tspan></tspan></text>
 <text class="TextShape"><tspan class="TextParagraph" font-family="Liberation Sans, sans-serif" font-size="353px" font-weight="400"><tspan class="TextPosition" x="12724" y="9708"><tspan fill="rgb(0,0,0)" stroke="none">0.06</tspan></tspan></tspan></text>
 <text class="TextShape"><tspan class="TextParagraph" font-family="Liberation Sans, sans-serif" font-size="353px" font-weight="400"><tspan class="TextPosition" x="14594" y="9708"><tspan fill="rgb(0,0,0)" stroke="none">0.07</tspan></tspan></tspan></text>
 <text class="TextShape"><tspan class="TextParagraph" font-family="Liberation Sans, sans-serif" font-size="353px" font-weight="400"><tspan class="TextPosition" x="16464" y="9708"><tspan fill="rgb(0,0,0)" stroke="none">0.08</tspan></tspan></tspan></text>
 <text class="TextShape"><tspan class="TextParagraph" font-family="Liberation Sans, sans-serif" font-size="459px" font-weight="400"><tspan class="TextPosition" x="5802" y="890"><tspan fill="rgb(0,0,0)" stroke="none">Execution time in function of the release</tspan></tspan></tspan></text>
 <path fill="rgb(0,69,134)" stroke="none" d="M 17738,5598 L 17632,5598 17632,5388 17843,5388 17843,5598 17738,5598 Z"/>
 <text class="TextShape"><tspan class="TextParagraph" font-family="Liberation Sans, sans-serif" font-size="353px" font-weight="400"><tspan class="TextPosition" x="17943" y="5612"><tspan fill="rgb(0,0,0)" stroke="none">Average</tspan></tspan></tspan></text>
 <text class="TextShape"><tspan class="TextParagraph" font-family="Liberation Sans, sans-serif" font-size="318px" font-weight="400"><tspan class="TextPosition" x="8205" y="10394"><tspan fill="rgb(0,0,0)" stroke="none">Execution time</tspan></tspan></tspan></text>
 <text class="TextShape" transform="rotate(-90 837 6179)"><tspan class="TextParagraph" font-family="Liberation Sans, sans-serif" font-size="318px" font-weight="400"><tspan class="TextPosition" x="837" y="6179"><tspan fill="rgb(0,0,0)" stroke="none">Release</tspan></tspan></tspan></text>
</svg>